<?xml version="1.0" encoding="utf-8"?>
<svg baseProfile="full" height="0" version="1.1" width="0" xmlns="http://www.w3.org/2000/svg" xmlns:ev="http://www.w3.org/2001/xml-events" xmlns:xlink="http://www.w3.org/1999/xlink"><defs><clipPath id="piece-mask-100-0" shape-rendering="crispEdges"><path d="M4432 3799 l-82 -8 -58 -16 -57 -16 -37 -25 -37 -24 -17 -32 -16 -31 6 -35 5 -35 47 -80 46 -80 20 -56 20 -56 5 -104 6 -103 -12 -57 -13 -56 -40 -82 -40 -83 -62 -63 -61 -64 -55 -36 -55 -36 -60 -25 -60 -24 -77 -16 -77 -16 -133 0 -133 0 -100 15 -100 15 -70 21 -69 21 -56 28 -56 28 -50 45 -50 45 -26 49 -26 48 -12 60 -12 59 6 61 6 61 21 74 20 75 55 108 54 108 0 15 0 15 -15 29 -15 29 -62 30 -63 30 -75 15 -75 15 -115 10 -115 11 -220 0 -220 -1 -185 -9 -185 -9 -207 -7 -208 -7 0 -96 0 -96 15 -230 15 -230 0 -190 0 -190 -15 -100 -15 -100 -16 -50 -17 -50 -18 -35 -17 -36 -34 -36 -33 -37 -49 -25 -49 -26 -80 0 -79 0 -57 15 -57 15 -65 29 -64 29 -79 17 -79 18 -64 -6 -65 -6 -53 -25 -53 -24 -41 -41 -40 -40 -21 -41 -20 -40 -16 -62 -16 -63 5 -61 5 -62 26 -57 26 -58 69 -67 69 -68 93 -46 94 -46 79 -20 79 -20 66 0 66 0 42 19 41 19 16 24 16 25 51 11 51 12 61 0 62 0 40 -19 41 -18 28 -34 29 -34 19 -43 19 -42 16 -78 15 -77 0 -200 -1 -200 -20 -265 -21 -265 0 -82 0 -81 -12 -5 -13 -4 5 -5 5 -5 405 -12 405 -11 215 10 215 9 95 11 95 10 95 16 95 16 85 25 85 24 71 34 70 34 47 47 47 47 15 50 15 51 0 16 0 16 -15 59 -16 60 -38 40 -39 40 -20 40 -20 40 -6 40 -7 41 11 47 10 48 22 47 22 47 70 71 71 71 66 32 65 32 82 16 82 16 53 -12 52 -11 41 -28 41 -27 37 -32 36 -32 0 -6 0 -5 36 -47 36 -47 35 -70 36 -71 24 -70 25 -70 5 -87 6 -86 -7 -25 -6 -25 -25 -30 -25 -29 -28 -6 -28 -6 -17 -36 -17 -36 0 -48 0 -47 28 -32 28 -31 56 -26 56 -26 69 -14 68 -14 95 -11 95 -12 791 -7 791 -8 11 -7 12 -7 0 1803 0 1804 -192 37 -193 37 -150 25 -150 24 -165 20 -165 20 -153 11 -154 10 -66 -1 -67 -2 -83 -8z" transform="translate(0.000000,381.000000) scale(0.100000,-0.100000)"/></clipPath><clipPath id="piece-mask-100-1" shape-rendering="crispEdges"><path d="M3495 4553 l-30 -3 -59 -11 -59 -11 -51 -22 -52 -23 -18 -28 -19 -28 0 -36 0 -36 21 -40 20 -40 42 -55 41 -55 16 -55 17 -55 0 -66 0 -65 -28 -57 -27 -56 -42 -37 -42 -36 -78 -38 -78 -38 -107 -26 -107 -25 -115 -17 -115 -16 -365 -4 -365 -5 -303 8 -302 8 -8 -2 -7 -3 3 -127 2 -128 17 -300 16 -300 0 -185 0 -185 -16 -73 -16 -73 -28 -51 -28 -51 -39 -26 -39 -26 -71 -3 -71 -3 -80 24 -80 25 -66 25 -66 26 -76 15 -76 16 -78 0 -78 0 -66 -14 -67 -14 -53 -28 -54 -27 -53 -52 -52 -53 -28 -59 -27 -58 1 -105 0 -105 18 -60 18 -60 25 -44 25 -43 37 -37 36 -38 45 -25 45 -26 55 -18 55 -19 180 0 180 0 108 23 108 23 82 25 82 24 67 7 67 6 53 -26 53 -26 27 -43 26 -43 17 -55 16 -55 6 -100 6 -100 -12 -120 -13 -120 -24 -145 -25 -145 -44 -203 -45 -203 0 -10 0 -9 2399 0 2398 0 7 48 6 47 9 125 10 125 6 270 6 270 11 120 10 120 18 72 19 71 24 49 25 48 29 27 28 27 37 15 37 16 68 0 67 0 117 -40 117 -41 69 -14 68 -15 90 0 90 0 63 15 62 15 52 26 51 26 55 51 54 52 24 47 24 48 15 57 15 57 -1 46 -1 45 -11 32 -12 32 -39 53 -38 53 -62 39 -61 40 -80 28 -80 28 -64 0 -64 0 -39 -12 -40 -12 -31 -30 -32 -29 -55 -14 -55 -13 -90 -6 -90 -6 -60 11 -60 11 -61 30 -61 30 -47 50 -47 50 -34 73 -35 72 -19 75 -19 76 -12 119 -13 120 7 250 6 250 6 181 7 181 -94 17 -94 16 -65 10 -65 9 -150 15 -150 16 -376 25 -376 25 -124 15 -124 16 -70 16 -69 16 -46 19 -45 19 -34 26 -33 26 -14 34 -15 34 7 37 7 37 15 30 15 30 37 41 38 42 15 29 15 29 7 37 7 38 -16 44 -17 44 -39 35 -39 35 -48 25 -48 24 -55 16 -55 17 -95 14 -95 15 -130 -2 -130 -1 -30 -4z" transform="translate(0.000000,456.000000) scale(0.100000,-0.100000)"/></clipPath><clipPath id="piece-mask-100-2" shape-rendering="crispEdges"><path d="M2156 4489 l-110 -9 -87 -15 -88 -15 -48 -16 -48 -16 -17 -16 -18 -15 0 -12 0 -12 23 -21 23 -22 30 -10 30 -11 22 -67 21 -67 11 -70 11 -70 -6 -55 -6 -55 -30 -62 -30 -63 -54 -44 -54 -44 -73 -30 -73 -31 -100 -20 -100 -20 -135 -11 -135 -12 -512 7 -513 7 0 -125 0 -125 -15 -186 -15 -186 -25 -233 -25 -232 -6 -115 -6 -115 13 -40 14 -40 33 -3 33 -3 34 25 33 25 76 26 76 26 103 15 102 16 140 -5 140 -6 83 -16 83 -16 87 -25 86 -25 91 -44 90 -43 55 -44 55 -43 22 -25 22 -25 32 -59 32 -59 5 -68 5 -67 -22 -70 -21 -70 -44 -58 -44 -59 -49 -36 -48 -37 -50 -25 -50 -25 -70 -22 -70 -22 -116 -5 -115 -6 -82 17 -81 16 -93 37 -93 36 -76 5 -76 4 -39 -12 -39 -13 -45 -46 -45 -47 -22 -64 -22 -65 -13 -60 -12 -60 -2 -527 -1 -528 2396 -2 2396 -3 32 145 33 145 34 180 35 180 17 145 16 145 -5 110 -6 110 -16 55 -17 55 -26 43 -27 43 -53 26 -53 26 -67 -6 -67 -7 -82 -24 -82 -25 -108 -23 -108 -23 -180 0 -180 0 -55 19 -55 18 -45 26 -45 25 -36 38 -37 37 -25 43 -25 44 -18 60 -18 60 0 105 -1 105 27 58 28 59 52 53 53 52 54 27 53 28 67 14 66 14 78 0 78 0 76 -16 76 -15 66 -26 66 -25 80 -25 80 -24 71 3 71 3 39 26 39 26 28 51 28 51 16 73 16 73 0 200 0 200 -13 180 -12 180 -6 227 -7 226 -7 7 -7 8 -378 -32 -378 -31 -210 -11 -210 -11 -141 6 -140 6 -65 10 -64 10 -67 21 -67 21 -41 38 -40 37 0 51 0 51 60 114 60 115 16 63 16 64 -5 51 -5 51 -20 40 -20 39 -47 43 -46 43 -63 29 -62 29 -79 20 -80 19 -97 11 -97 10 -173 -1 -173 -2 -109 -8z" transform="translate(0.000000,450.000000) scale(0.100000,-0.100000)"/></clipPath><clipPath id="piece-mask-100-3" shape-rendering="crispEdges"><path d="M1310 4753 l-55 -3 -455 -31 -455 -30 -173 -6 -172 -6 0 -1788 0 -1787 5 -14 5 -13 308 7 307 6 395 23 395 22 245 1 245 1 38 -17 37 -17 0 -11 0 -11 -45 -44 -45 -43 -35 -74 -34 -73 -10 -80 -10 -80 10 -75 9 -75 16 -55 16 -55 28 -57 29 -58 47 -65 46 -66 57 -46 56 -46 70 -33 70 -34 74 -10 75 -10 117 10 117 10 54 11 53 11 55 15 55 15 59 25 60 25 55 35 56 35 39 37 38 36 19 40 19 40 0 21 0 21 -21 26 -20 27 -39 11 -39 12 -15 39 -16 38 0 40 0 39 30 34 29 34 61 27 61 27 97 24 97 24 175 25 175 25 185 26 184 26 152 30 152 29 98 30 99 29 81 32 80 32 50 63 49 63 48 83 47 83 39 100 39 100 36 125 35 125 41 150 41 150 39 81 39 82 51 45 50 45 50 12 51 12 47 -7 47 -6 36 -11 37 -11 11 -23 10 -23 26 -17 26 -17 43 1 43 0 39 20 39 20 35 34 35 33 23 30 23 30 30 62 30 62 21 78 21 78 0 165 1 165 -18 70 -17 70 -24 52 -24 52 -45 49 -46 49 -47 25 -48 26 -64 17 -64 16 -121 0 -121 0 -100 -16 -100 -16 -80 -20 -80 -20 -86 -30 -86 -29 -44 0 -44 0 -33 20 -33 21 -19 42 -19 42 -11 90 -11 90 6 85 5 85 20 295 19 295 3 132 3 131 -9 -5 -8 -6 -564 14 -563 13 -168 -12 -168 -12 -75 -16 -75 -16 -58 -25 -58 -26 -22 -31 -22 -31 0 -40 0 -40 57 -100 57 -100 16 -52 17 -53 -3 -77 -4 -78 -35 -54 -34 -54 -71 -47 -72 -46 -70 -22 -70 -22 -84 -15 -84 -15 -140 -7 -140 -6 -85 17 -85 17 -85 42 -85 41 -85 86 -85 85 -38 65 -38 65 -25 80 -26 80 -5 90 -5 90 11 57 12 57 30 61 31 60 35 27 35 27 -18 7 -19 8 -230 -2 -230 -1 -55 -3z" transform="translate(0.000000,476.000000) scale(0.100000,-0.100000)"/></clipPath><clipPath id="piece-mask-100-4" shape-rendering="crispEdges"><path d="M1613 4268 l6 -233 31 -350 30 -350 0 -106 0 -105 -15 -52 -16 -52 -19 -10 -19 -10 -31 0 -31 0 -58 30 -58 31 -69 20 -69 20 -95 14 -95 15 -142 0 -142 0 -112 -16 -111 -15 -93 -24 -93 -24 -79 -31 -78 -31 -67 -40 -66 -39 -31 -31 -31 -31 -28 -46 -27 -47 0 -71 1 -70 27 -55 26 -55 48 -48 48 -47 70 -35 70 -34 78 -20 79 -20 135 -12 135 -12 169 13 168 12 154 24 154 24 111 25 111 26 33 0 33 0 36 -10 35 -10 41 -35 40 -34 21 -49 21 -49 11 -91 11 -90 -11 -119 -11 -118 -29 -145 -29 -145 -40 -146 -40 -145 -47 -143 -46 -144 -3 -16 -3 -16 117 2 116 2 500 12 500 12 180 -6 180 -5 90 -16 90 -16 65 -33 64 -32 19 -26 19 -27 5 -43 5 -44 -22 -57 -21 -57 -51 -77 -52 -78 -18 -48 -18 -48 0 -43 0 -42 23 -42 22 -42 27 -21 27 -21 53 -24 53 -24 75 -16 75 -16 130 -8 130 -9 101 9 101 9 69 21 69 21 50 25 50 25 33 31 32 31 0 37 0 38 -25 20 -26 20 -30 6 -31 7 -19 42 -19 41 0 33 0 34 16 28 17 27 51 31 51 30 66 20 66 20 124 21 124 21 360 40 360 41 140 20 140 20 105 20 105 20 166 40 166 41 12 102 12 101 9 370 9 370 11 80 11 80 15 59 15 60 24 45 24 46 31 32 31 33 55 16 55 16 67 -12 66 -11 71 -30 70 -30 61 -14 60 -15 85 -6 84 -7 90 12 90 12 78 26 78 26 68 41 68 41 34 30 34 30 36 45 36 45 24 50 24 50 0 105 0 105 -30 58 -29 59 -49 43 -48 44 -54 20 -54 20 -63 7 -63 6 -74 -16 -74 -16 -66 -31 -66 -31 -85 -14 -85 -14 -75 0 -75 0 -70 15 -70 15 -64 31 -64 32 -66 66 -67 66 -36 70 -36 70 -22 65 -22 65 -19 97 -18 96 -10 148 -10 149 9 245 10 245 3 48 4 47 -2400 0 -2400 0 6 -232z" transform="translate(0.000000,450.000000) scale(0.100000,-0.100000)"/></clipPath><clipPath id="piece-mask-100-5" shape-rendering="crispEdges"><path d="M3810 4515 l-85 -13 -59 -23 -60 -22 -23 -23 -23 -23 0 -21 0 -21 15 -23 15 -23 44 -31 44 -32 22 -62 21 -63 6 -75 6 -76 -17 -56 -16 -56 -52 -55 -53 -56 -66 -36 -67 -36 -98 -24 -98 -25 -120 -18 -121 -17 -712 3 -712 2 4 -32 4 -33 5 -150 5 -150 32 -340 31 -340 2 -205 1 -205 -21 -47 -22 -46 -21 -7 -22 -7 -39 21 -40 20 -77 20 -78 20 -94 15 -94 15 -147 11 -147 11 -140 -10 -140 -11 -89 -15 -89 -16 -105 -35 -105 -35 -45 -26 -45 -26 -43 -34 -42 -35 -20 -38 -20 -39 0 -41 0 -41 15 -36 15 -36 55 -52 54 -53 90 -46 90 -47 96 -34 96 -35 117 -29 117 -30 120 -20 120 -20 130 -12 130 -11 105 5 105 6 54 16 53 16 22 23 21 23 40 13 40 13 60 1 60 1 40 -18 40 -18 27 -37 26 -38 17 -59 18 -59 -5 -120 -5 -121 -27 -118 -27 -118 -44 -127 -43 -127 -38 -90 -38 -90 -68 -134 -68 -135 11 -7 11 -7 427 -7 426 -8 235 6 235 6 115 16 115 16 107 25 107 26 78 38 78 38 42 36 42 37 27 56 28 57 0 65 0 66 -17 55 -16 55 -41 55 -42 55 -20 40 -21 40 0 36 0 37 21 30 22 30 52 21 53 20 45 11 45 10 151 7 151 6 97 -12 97 -13 70 -19 71 -20 49 -25 50 -25 39 -35 39 -35 17 -44 16 -44 -7 -38 -7 -37 -15 -29 -15 -29 -38 -42 -37 -41 -15 -30 -15 -30 -7 -37 -7 -37 15 -34 14 -34 33 -26 34 -26 45 -19 46 -19 69 -16 70 -16 124 -16 124 -15 376 -25 376 -25 150 -16 150 -15 95 -14 95 -14 54 -11 55 -10 18 6 18 5 0 82 0 82 21 265 20 265 1 200 0 200 -15 77 -16 78 -19 42 -19 43 -29 34 -28 34 -41 18 -40 19 -62 0 -61 0 -51 -12 -51 -11 -16 -25 -16 -24 -41 -19 -42 -19 -66 0 -66 0 -79 20 -79 20 -94 46 -93 46 -69 68 -69 67 -26 58 -26 57 -5 62 -5 61 16 63 16 62 20 40 21 41 40 40 41 41 53 24 53 25 65 6 64 6 79 -18 79 -17 64 -29 65 -29 57 -15 57 -15 79 0 80 0 49 26 49 25 33 37 34 36 17 36 18 35 17 50 16 50 15 100 15 100 0 190 0 190 -15 230 -15 230 0 95 0 95 -62 13 -63 13 -134 24 -134 25 -186 20 -186 20 -260 20 -260 20 -135 16 -135 15 -88 19 -88 19 -58 26 -58 26 -32 35 -33 34 -5 38 -5 38 22 52 22 52 22 0 21 0 31 19 31 19 5 20 6 20 -18 39 -17 38 -57 53 -58 52 -71 34 -72 34 -66 20 -67 21 -77 10 -76 11 -92 -1 -92 -1 -85 -13z" transform="translate(0.000000,453.000000) scale(0.100000,-0.100000)"/></clipPath><clipPath id="piece-mask-100-6" shape-rendering="crispEdges"><path d="M1632 4513 l7 -178 21 -235 21 -235 6 -155 6 -155 -12 -73 -11 -74 -20 -37 -19 -38 -36 -18 -37 -17 -36 7 -37 6 -53 24 -52 24 -73 20 -73 21 -99 15 -100 15 -114 0 -113 0 -105 -16 -104 -15 -87 -25 -87 -24 -103 -51 -104 -51 -67 -64 -68 -64 -32 -60 -32 -60 -9 -57 -10 -57 12 -41 12 -40 56 -55 56 -56 82 -42 81 -43 94 -33 94 -34 124 -31 124 -30 145 -21 145 -22 160 0 160 -1 65 12 65 12 85 42 85 42 91 0 90 0 42 -28 42 -27 24 -49 25 -48 12 -69 12 -68 -6 -93 -6 -93 -25 -123 -25 -123 -45 -140 -46 -141 -49 -119 -49 -119 -46 -99 -46 -98 0 -11 0 -10 203 7 202 7 185 9 185 9 220 1 220 0 115 -11 115 -10 75 -15 75 -15 63 -30 62 -30 15 -29 15 -29 0 -15 0 -15 -54 -108 -55 -108 -20 -75 -21 -74 -6 -61 -6 -61 12 -59 12 -60 26 -48 26 -49 50 -45 50 -45 56 -28 56 -28 69 -21 70 -21 100 -15 100 -15 133 0 133 0 77 16 77 16 60 24 60 25 55 36 55 36 61 64 62 63 40 83 40 82 13 56 12 57 -6 103 -5 104 -20 56 -20 56 -46 80 -47 80 -5 35 -6 35 16 31 16 30 31 23 31 22 60 18 61 19 125 11 125 12 186 -12 186 -12 160 -20 160 -20 205 -34 205 -34 124 -26 124 -25 8 0 9 0 0 1800 0 1800 -2392 0 -2393 0 7 -177z" transform="translate(0.000000,469.000000) scale(0.100000,-0.100000)"/></clipPath><clipPath id="piece-mask-100-7" shape-rendering="crispEdges"><path d="M26 3598 l-5 -23 -10 -275 -10 -275 9 -140 10 -140 16 -85 15 -85 20 -67 19 -66 42 -84 41 -83 67 -66 67 -66 64 -32 64 -31 70 -15 70 -15 75 0 75 0 85 14 85 14 66 31 66 31 74 16 74 16 63 -6 63 -7 54 -20 54 -20 48 -44 49 -43 29 -59 30 -58 0 -105 0 -105 -24 -50 -24 -50 -36 -45 -36 -45 -34 -30 -34 -30 -68 -41 -68 -41 -78 -26 -78 -26 -90 -12 -90 -12 -84 7 -85 6 -60 15 -61 14 -70 30 -71 30 -66 11 -67 12 -55 -16 -55 -16 -31 -33 -31 -32 -24 -46 -24 -45 -15 -60 -15 -59 -11 -80 -11 -80 -9 -370 -9 -370 -12 -98 -11 -98 4 -5 5 -4 699 -3 699 -2 121 17 120 18 98 25 98 24 67 36 66 36 53 56 52 55 16 56 17 56 -6 76 -6 75 -21 62 -22 63 -47 34 -47 35 -14 26 -14 26 10 27 9 27 55 28 55 27 70 15 70 15 115 6 115 7 88 -12 88 -12 67 -20 67 -21 72 -34 71 -34 58 -52 57 -53 17 -38 18 -39 -6 -20 -5 -20 -31 -19 -31 -19 -21 0 -22 0 -22 -52 -22 -52 5 -38 5 -38 33 -34 32 -35 58 -26 58 -26 88 -19 88 -19 135 -15 135 -15 314 -26 314 -25 131 -15 131 -16 120 -20 120 -20 56 -15 57 -14 23 0 24 0 39 88 39 87 58 136 57 136 47 144 46 143 25 123 25 123 6 93 6 93 -12 68 -12 69 -25 48 -24 49 -42 27 -42 28 -90 0 -91 0 -85 -42 -85 -42 -65 -12 -65 -12 -160 1 -160 0 -145 22 -145 21 -124 30 -124 31 -94 34 -94 33 -81 43 -82 42 -56 56 -56 55 -12 40 -12 41 10 57 9 57 32 60 32 60 68 64 67 64 104 51 103 51 87 24 87 25 104 15 105 16 113 0 114 0 100 -15 99 -15 73 -21 73 -20 52 -24 53 -24 37 -6 36 -7 37 17 36 18 19 38 20 37 11 74 12 73 -6 155 -6 155 -21 235 -21 235 -7 175 -7 175 -2397 3 -2398 2 -4 -22z" transform="translate(0.000000,362.000000) scale(0.100000,-0.100000)"/></clipPath><clipPath id="piece-mask-100-8" shape-rendering="crispEdges"><path d="M2320 4755 l-65 -15 -65 -32 -65 -31 -71 -71 -70 -71 -22 -47 -22 -47 -10 -48 -11 -47 7 -41 6 -40 20 -40 20 -40 39 -40 38 -40 16 -60 15 -59 0 -16 0 -16 -15 -51 -15 -50 -47 -47 -47 -47 -70 -34 -71 -34 -85 -24 -85 -25 -95 -16 -95 -16 -155 -15 -155 -14 -245 -3 -245 -3 -316 8 -316 9 -7 -179 -6 -178 -6 -250 -7 -250 13 -120 12 -119 19 -76 19 -75 35 -72 34 -73 47 -50 47 -50 61 -30 61 -30 60 -11 60 -11 90 6 90 6 55 13 55 14 32 29 31 30 40 12 39 12 64 0 64 0 80 -28 80 -28 61 -40 62 -39 38 -53 39 -53 12 -32 11 -32 1 -45 1 -46 -15 -57 -15 -57 -24 -48 -24 -47 -54 -52 -55 -51 -51 -26 -52 -26 -62 -15 -63 -15 -90 0 -90 0 -68 15 -69 14 -117 41 -117 40 -67 0 -68 0 -37 -16 -37 -15 -28 -27 -29 -27 -23 -45 -23 -46 -16 -54 -16 -55 -10 -70 -11 -70 -14 -415 -14 -415 -11 -92 -11 -93 6 -10 6 -10 2395 0 2394 0 0 1794 0 1795 -12 7 -11 7 -791 8 -791 7 -95 12 -95 11 -68 14 -69 14 -56 26 -56 26 -28 31 -28 32 0 47 0 48 17 36 17 36 28 6 28 6 25 29 25 30 6 25 7 25 -6 86 -5 87 -25 70 -24 70 -36 71 -35 70 -36 47 -36 47 -1 8 0 7 -52 43 -51 42 -43 21 -42 20 -53 4 -53 5 -65 -15z" transform="translate(0.000000,477.000000) scale(0.100000,-0.100000)"/></clipPath><clipPath id="piece-mask-100-9" shape-rendering="crispEdges"><path d="M2 2783 l3 -1798 170 2 170 2 450 31 450 31 271 6 271 6 37 -7 38 -7 -41 -38 -40 -37 -25 -55 -26 -54 -11 -55 -11 -55 5 -90 5 -90 26 -80 25 -80 38 -65 38 -65 85 -85 85 -86 85 -41 85 -42 85 -17 85 -17 140 6 140 7 84 15 84 15 70 22 70 22 72 46 71 47 34 54 35 54 4 78 3 77 -17 53 -16 52 -57 100 -57 100 0 40 0 40 22 31 22 31 58 26 58 25 75 16 75 16 168 12 168 12 558 -13 558 -13 20 6 20 6 0 13 0 12 47 144 47 145 40 145 40 146 29 145 29 145 11 118 11 119 -11 90 -11 91 -21 49 -21 49 -40 34 -41 35 -35 10 -36 10 -33 0 -33 0 -111 -26 -111 -25 -154 -24 -154 -24 -168 -12 -169 -13 -135 12 -135 12 -79 20 -78 20 -70 34 -70 35 -48 47 -48 48 -26 55 -27 55 -1 70 0 71 27 47 28 46 31 31 31 31 66 39 67 40 78 31 79 31 93 24 93 24 111 15 112 16 142 0 142 0 95 -15 95 -14 69 -20 69 -20 58 -31 58 -30 31 0 31 0 19 10 19 10 16 52 15 52 0 105 0 106 -30 350 -31 350 -6 233 -6 232 -2404 0 -2403 0 2 -1797z" transform="translate(0.000000,458.000000) scale(0.100000,-0.100000)"/></clipPath><clipPath id="piece-mask-100-10" shape-rendering="crispEdges"><path d="M1470 3644 l-55 -4 -395 -21 -395 -21 -308 -6 -307 -7 -4 10 -4 10 -1 -1802 -1 -1803 2400 0 2400 0 1 108 2 107 1 420 1 420 13 60 13 60 22 65 22 64 45 47 45 46 39 13 39 12 76 -4 76 -5 93 -36 93 -37 81 -16 82 -17 115 6 116 5 70 22 70 22 50 25 50 25 48 37 49 36 44 59 44 58 21 70 22 70 -5 67 -5 68 -32 59 -32 59 -22 25 -22 25 -55 43 -55 44 -90 43 -91 44 -86 25 -87 25 -83 16 -83 16 -140 6 -140 5 -102 -16 -103 -15 -76 -26 -76 -26 -33 -25 -34 -25 -33 3 -33 3 -14 40 -13 40 6 115 6 115 25 232 25 233 15 186 15 186 0 123 0 124 -54 -24 -54 -24 -116 -35 -116 -35 -153 -30 -153 -30 -184 -26 -185 -26 -175 -25 -175 -25 -97 -24 -97 -24 -61 -27 -61 -27 -29 -34 -30 -34 0 -39 0 -40 16 -38 15 -39 39 -12 39 -11 20 -27 21 -26 0 -21 0 -21 -19 -40 -19 -40 -38 -36 -39 -37 -56 -35 -55 -35 -60 -25 -59 -25 -55 -15 -55 -15 -53 -11 -54 -11 -117 -10 -117 -10 -75 10 -74 10 -70 34 -70 33 -56 46 -57 46 -46 66 -47 65 -29 58 -28 57 -16 55 -16 55 -9 75 -10 75 10 80 10 80 34 73 35 74 45 43 45 44 0 11 0 11 -37 16 -38 16 -190 2 -190 3 -55 -4z" transform="translate(0.000000,365.000000) scale(0.100000,-0.100000)"/></clipPath><clipPath id="piece-mask-100-11" shape-rendering="crispEdges"><path d="M775 3700 l-190 -7 -252 -2 -252 -1 -15 -16 -16 -15 0 -127 0 -127 -15 -205 -15 -205 -10 -168 -11 -167 11 -88 11 -87 19 -42 19 -42 33 -21 33 -20 44 0 44 0 86 29 86 30 80 20 80 20 100 16 100 16 121 0 121 0 64 -16 64 -17 48 -26 47 -25 46 -49 45 -49 24 -52 24 -52 17 -70 18 -70 -1 -165 0 -165 -21 -78 -21 -78 -30 -62 -30 -62 -23 -30 -23 -30 -35 -33 -35 -34 -39 -20 -39 -20 -43 0 -43 -1 -26 17 -26 17 -10 23 -11 23 -37 11 -36 11 -47 6 -47 7 -51 -12 -50 -12 -48 -43 -49 -44 -30 -58 -31 -58 -21 -62 -21 -61 -61 -224 -61 -223 -39 -105 -39 -104 -52 -93 -51 -93 -48 -60 -49 -60 0 -4 0 -4 493 -7 492 -7 145 11 145 12 100 20 100 20 73 31 73 30 54 44 54 44 30 63 30 62 6 55 6 55 -11 70 -11 70 -21 67 -22 68 -31 10 -32 11 -24 25 -23 25 10 17 11 17 28 14 28 14 51 13 51 14 115 15 115 16 215 6 215 6 120 -12 119 -13 76 -19 75 -19 62 -29 62 -29 46 -43 47 -43 20 -39 20 -40 5 -51 5 -51 -16 -64 -16 -63 -60 -115 -60 -114 0 -51 0 -51 40 -37 41 -38 67 -21 67 -21 64 -10 65 -10 140 -6 141 -6 205 11 205 10 397 33 396 32 -4 7 -4 7 68 133 68 134 38 90 38 90 43 127 44 127 27 118 27 118 5 121 5 120 -18 59 -17 59 -26 38 -27 37 -40 18 -40 18 -60 -1 -60 -1 -40 -13 -40 -13 -21 -23 -22 -23 -53 -16 -54 -16 -105 -6 -105 -5 -130 11 -130 12 -120 20 -120 20 -117 30 -117 29 -96 35 -96 34 -90 47 -90 46 -54 53 -55 52 -15 36 -15 36 0 41 0 41 20 39 20 38 42 35 43 34 45 26 45 26 105 35 105 35 89 16 89 15 140 11 140 10 147 -11 147 -11 94 -15 94 -15 78 -20 77 -20 40 -20 39 -21 22 7 21 7 22 46 21 47 -1 205 -2 205 -31 340 -32 340 -6 172 -6 172 -6 9 -6 10 -110 -29 -110 -29 -150 -29 -150 -30 -140 -20 -140 -20 -360 -41 -360 -40 -124 -21 -124 -21 -66 -20 -66 -20 -51 -30 -51 -31 -17 -27 -16 -28 0 -34 0 -33 19 -41 19 -42 31 -7 30 -6 26 -20 25 -20 0 -38 0 -37 -32 -31 -33 -31 -50 -25 -50 -25 -69 -21 -69 -21 -101 -9 -101 -9 -130 9 -130 8 -75 16 -75 16 -53 24 -53 24 -27 21 -27 21 -22 42 -23 42 0 42 0 43 18 48 18 48 52 78 51 77 21 57 22 57 -5 44 -5 43 -19 27 -19 26 -64 32 -65 33 -85 16 -85 16 -350 3 -350 2 -190 -7z" transform="translate(0.000000,371.000000) scale(0.100000,-0.100000)"/></clipPath></defs></svg>