<?xml version="1.0" standalone="no"?>
<!DOCTYPE svg PUBLIC "-//W3C//DTD SVG 20010904//EN"
 "http://www.w3.org/TR/2001/REC-SVG-20010904/DTD/svg10.dtd">
<svg version="1.0" xmlns="http://www.w3.org/2000/svg"
 width="509.000000pt" height="460.000000pt" viewBox="0 0 509.000000 460.000000"
 preserveAspectRatio="xMidYMid meet">
<metadata>
Created by potrace 1.16, written by Peter Selinger 2001-2019
</metadata>
<g transform="translate(0.000000,460.000000) scale(0.100000,-0.100000)"
fill="#000000" stroke="none">
<path d="M2 2793 l3 -1808 180 2 180 1 450 32 450 31 272 6 271 6 17 -7 17 -6
-25 -20 -26 -20 -30 -60 -30 -61 -12 -57 -11 -57 5 -100 5 -100 26 -80 25 -80
38 -65 38 -65 85 -85 85 -86 85 -41 85 -42 85 -17 85 -17 150 6 150 6 84 16
84 15 70 22 70 22 72 46 71 47 34 54 35 53 4 89 3 88 -17 52 -16 52 -57 99
-56 99 0 32 0 31 22 31 21 30 58 26 58 25 78 16 77 16 158 12 157 11 566 -13
565 -13 22 7 22 7 0 16 0 15 45 141 46 141 40 145 40 146 29 145 29 145 12
124 11 123 -11 95 -11 95 -22 50 -21 49 -40 34 -41 35 -35 10 -36 10 -43 0
-43 0 -111 -26 -111 -25 -153 -24 -152 -24 -165 -12 -164 -12 -131 12 -132 12
-77 19 -78 20 -70 34 -70 35 -48 47 -48 48 -26 54 -27 55 0 61 -1 61 27 47 28
46 31 31 31 31 66 39 67 40 78 31 79 31 93 24 93 24 111 15 112 16 132 0 132
0 95 -15 95 -14 69 -20 69 -20 58 -31 58 -30 41 0 41 0 19 10 19 10 16 52 15
52 0 115 0 116 -30 350 -31 350 -6 233 -6 232 -2414 0 -2413 0 2 -1807z"/>
</g>
</svg>
