<?xml version="1.0" standalone="no"?>
<!DOCTYPE svg PUBLIC "-//W3C//DTD SVG 20010904//EN"
 "http://www.w3.org/TR/2001/REC-SVG-20010904/DTD/svg10.dtd">
<svg version="1.0" xmlns="http://www.w3.org/2000/svg"
 width="507.000000pt" height="458.000000pt" viewBox="0 0 507.000000 458.000000"
 preserveAspectRatio="xMidYMid meet">
<metadata>
Created by potrace 1.16, written by Peter Selinger 2001-2019
</metadata>
<g transform="translate(0.000000,458.000000) scale(0.100000,-0.100000)"
fill="#000000" stroke="none">
<path d="M2 2783 l3 -1798 170 2 170 2 450 31 450 31 271 6 271 6 37 -7 38 -7
-41 -38 -40 -37 -25 -55 -26 -54 -11 -55 -11 -55 5 -90 5 -90 26 -80 25 -80
38 -65 38 -65 85 -85 85 -86 85 -41 85 -42 85 -17 85 -17 140 6 140 7 84 15
84 15 70 22 70 22 72 46 71 47 34 54 35 54 4 78 3 77 -17 53 -16 52 -57 100
-57 100 0 40 0 40 22 31 22 31 58 26 58 25 75 16 75 16 168 12 168 12 558 -13
558 -13 20 6 20 6 0 13 0 12 47 144 47 145 40 145 40 146 29 145 29 145 11
118 11 119 -11 90 -11 91 -21 49 -21 49 -40 34 -41 35 -35 10 -36 10 -33 0
-33 0 -111 -26 -111 -25 -154 -24 -154 -24 -168 -12 -169 -13 -135 12 -135 12
-79 20 -78 20 -70 34 -70 35 -48 47 -48 48 -26 55 -27 55 -1 70 0 71 27 47 28
46 31 31 31 31 66 39 67 40 78 31 79 31 93 24 93 24 111 15 112 16 142 0 142
0 95 -15 95 -14 69 -20 69 -20 58 -31 58 -30 31 0 31 0 19 10 19 10 16 52 15
52 0 105 0 106 -30 350 -31 350 -6 233 -6 232 -2404 0 -2403 0 2 -1797z"/>
</g>
</svg>
