<?xml version="1.0" standalone="no"?>
<!DOCTYPE svg PUBLIC "-//W3C//DTD SVG 20010904//EN"
 "http://www.w3.org/TR/2001/REC-SVG-20010904/DTD/svg10.dtd">
<svg version="1.0" xmlns="http://www.w3.org/2000/svg"
 width="520.000000pt" height="364.000000pt" viewBox="0 0 520.000000 364.000000"
 preserveAspectRatio="xMidYMid meet">
<metadata>
Created by potrace 1.16, written by Peter Selinger 2001-2019
</metadata>
<g transform="translate(0.000000,364.000000) scale(0.100000,-0.100000)"
fill="#000000" stroke="none">
<path d="M26 3618 l-5 -23 -10 -280 -11 -280 10 -148 11 -149 18 -96 19 -97
22 -65 22 -65 36 -70 36 -70 67 -66 66 -66 64 -32 64 -31 70 -15 70 -15 85 0
85 0 85 14 85 14 66 31 66 31 74 16 74 15 55 -6 55 -7 52 -20 52 -19 48 -44
49 -43 29 -59 30 -58 0 -95 -1 -95 -23 -50 -24 -50 -36 -45 -36 -45 -34 -30
-34 -30 -68 -41 -68 -41 -78 -26 -78 -26 -89 -11 -90 -12 -75 6 -76 7 -60 14
-60 14 -72 30 -72 31 -73 11 -73 12 -57 -17 -57 -16 -31 -33 -31 -32 -24 -46
-24 -45 -15 -60 -15 -59 -11 -80 -11 -80 -9 -365 -9 -365 -12 -113 -12 -112 5
-5 5 -5 709 -3 709 -2 121 17 120 18 98 25 98 24 67 36 66 36 53 56 52 55 16
56 17 56 -6 85 -5 86 -22 62 -22 63 -47 34 -47 35 -13 24 -13 24 12 23 12 22
53 24 53 25 69 14 68 15 105 6 105 7 88 -12 88 -12 67 -20 67 -21 72 -34 71
-34 57 -51 56 -52 14 -28 15 -28 0 -21 0 -20 -32 -20 -33 -20 -21 0 -22 0 -22
-52 -22 -52 4 -47 5 -47 33 -36 33 -35 58 -26 58 -26 88 -19 88 -19 135 -15
135 -15 314 -26 314 -25 131 -15 131 -16 120 -20 120 -20 56 -15 57 -14 33 0
34 0 39 88 39 87 58 136 57 136 47 144 46 143 25 125 25 125 6 101 6 101 -12
68 -12 69 -25 48 -24 49 -42 27 -42 28 -100 0 -101 0 -85 -42 -85 -42 -65 -12
-65 -12 -150 1 -150 0 -145 22 -145 21 -124 30 -124 31 -94 34 -94 33 -81 43
-82 42 -56 56 -56 55 -11 36 -10 37 8 51 8 51 32 60 32 60 68 64 67 64 104 51
103 51 87 24 87 25 104 15 105 16 103 0 104 0 100 -15 99 -15 73 -21 73 -20
53 -24 54 -25 45 -6 45 -6 37 17 37 18 19 38 20 37 11 74 12 73 -6 165 -6 165
-21 235 -21 235 -7 175 -7 175 -2407 3 -2408 2 -4 -22z"/>
</g>
</svg>
