<?xml version="1.0" standalone="no"?>
<!DOCTYPE svg PUBLIC "-//W3C//DTD SVG 20010904//EN"
 "http://www.w3.org/TR/2001/REC-SVG-20010904/DTD/svg10.dtd">
<svg version="1.0" xmlns="http://www.w3.org/2000/svg"
 width="518.000000pt" height="362.000000pt" viewBox="0 0 518.000000 362.000000"
 preserveAspectRatio="xMidYMid meet">
<metadata>
Created by potrace 1.16, written by Peter Selinger 2001-2019
</metadata>
<g transform="translate(0.000000,362.000000) scale(0.100000,-0.100000)"
fill="#000000" stroke="none">
<path d="M26 3598 l-5 -23 -10 -275 -10 -275 9 -140 10 -140 16 -85 15 -85 20
-67 19 -66 42 -84 41 -83 67 -66 67 -66 64 -32 64 -31 70 -15 70 -15 75 0 75
0 85 14 85 14 66 31 66 31 74 16 74 16 63 -6 63 -7 54 -20 54 -20 48 -44 49
-43 29 -59 30 -58 0 -105 0 -105 -24 -50 -24 -50 -36 -45 -36 -45 -34 -30 -34
-30 -68 -41 -68 -41 -78 -26 -78 -26 -90 -12 -90 -12 -84 7 -85 6 -60 15 -61
14 -70 30 -71 30 -66 11 -67 12 -55 -16 -55 -16 -31 -33 -31 -32 -24 -46 -24
-45 -15 -60 -15 -59 -11 -80 -11 -80 -9 -370 -9 -370 -12 -98 -11 -98 4 -5 5
-4 699 -3 699 -2 121 17 120 18 98 25 98 24 67 36 66 36 53 56 52 55 16 56 17
56 -6 76 -6 75 -21 62 -22 63 -47 34 -47 35 -14 26 -14 26 10 27 9 27 55 28
55 27 70 15 70 15 115 6 115 7 88 -12 88 -12 67 -20 67 -21 72 -34 71 -34 58
-52 57 -53 17 -38 18 -39 -6 -20 -5 -20 -31 -19 -31 -19 -21 0 -22 0 -22 -52
-22 -52 5 -38 5 -38 33 -34 32 -35 58 -26 58 -26 88 -19 88 -19 135 -15 135
-15 314 -26 314 -25 131 -15 131 -16 120 -20 120 -20 56 -15 57 -14 23 0 24 0
39 88 39 87 58 136 57 136 47 144 46 143 25 123 25 123 6 93 6 93 -12 68 -12
69 -25 48 -24 49 -42 27 -42 28 -90 0 -91 0 -85 -42 -85 -42 -65 -12 -65 -12
-160 1 -160 0 -145 22 -145 21 -124 30 -124 31 -94 34 -94 33 -81 43 -82 42
-56 56 -56 55 -12 40 -12 41 10 57 9 57 32 60 32 60 68 64 67 64 104 51 103
51 87 24 87 25 104 15 105 16 113 0 114 0 100 -15 99 -15 73 -21 73 -20 52
-24 53 -24 37 -6 36 -7 37 17 36 18 19 38 20 37 11 74 12 73 -6 155 -6 155
-21 235 -21 235 -7 175 -7 175 -2397 3 -2398 2 -4 -22z"/>
</g>
</svg>
