<?xml version="1.0" standalone="no"?>
<!DOCTYPE svg PUBLIC "-//W3C//DTD SVG 20010904//EN"
 "http://www.w3.org/TR/2001/REC-SVG-20010904/DTD/svg10.dtd">
<svg version="1.0" xmlns="http://www.w3.org/2000/svg"
 width="797.000000pt" height="452.000000pt" viewBox="0 0 797.000000 452.000000"
 preserveAspectRatio="xMidYMid meet">
<metadata>
Created by potrace 1.16, written by Peter Selinger 2001-2019
</metadata>
<g transform="translate(0.000000,452.000000) scale(0.100000,-0.100000)"
fill="#000000" stroke="none">
<path d="M1613 4278 l6 -243 30 -350 31 -350 0 -96 0 -95 -15 -52 -16 -52 -19
-10 -19 -10 -21 0 -21 0 -58 30 -58 31 -69 20 -69 20 -95 14 -95 15 -152 0
-152 0 -112 -16 -111 -15 -93 -24 -93 -24 -79 -31 -78 -31 -67 -40 -66 -39
-31 -31 -31 -31 -28 -46 -27 -47 0 -80 0 -80 27 -55 27 -56 48 -48 48 -47 70
-35 70 -34 79 -20 79 -20 139 -12 140 -12 172 12 173 12 154 25 154 24 117 26
118 27 45 -6 45 -7 43 -32 42 -32 27 -55 27 -55 11 -87 10 -87 -10 -113 -11
-113 -29 -145 -29 -145 -41 -147 -40 -148 -50 -154 -50 -153 0 -15 0 -14 123
3 122 2 505 12 505 12 170 -6 170 -6 90 -15 90 -16 65 -33 64 -32 18 -25 19
-25 5 -35 6 -35 -22 -57 -21 -57 -51 -77 -52 -78 -18 -48 -18 -48 0 -53 0 -52
23 -42 22 -42 27 -21 27 -21 53 -24 53 -24 75 -16 75 -16 135 -9 135 -9 106
10 106 9 69 21 69 21 50 25 50 25 33 31 32 31 0 47 0 48 -25 20 -26 20 -30 6
-31 7 -19 42 -19 41 0 23 0 24 16 28 17 27 51 31 51 30 66 20 66 20 124 21
124 21 360 40 360 41 140 20 140 20 105 20 105 20 166 40 166 41 12 102 12
101 9 370 9 370 11 80 11 80 15 59 15 60 24 45 24 46 31 32 30 32 52 16 52 15
61 -11 60 -11 70 -30 70 -29 60 -15 60 -14 95 -6 95 -7 90 12 90 12 78 26 78
26 68 41 68 41 34 30 34 30 36 45 36 45 24 50 24 50 0 115 0 115 -30 58 -29
59 -49 43 -48 44 -55 21 -56 20 -71 6 -72 6 -74 -16 -74 -16 -66 -31 -66 -31
-85 -14 -85 -14 -65 0 -65 0 -70 15 -70 15 -64 31 -64 32 -67 66 -67 66 -41
83 -42 84 -19 66 -20 67 -15 85 -16 85 -9 140 -10 140 9 235 10 235 4 63 5 62
-2411 0 -2411 0 6 -242z"/>
</g>
</svg>
