<?xml version="1.0" standalone="no"?>
<!DOCTYPE svg PUBLIC "-//W3C//DTD SVG 20010904//EN"
 "http://www.w3.org/TR/2001/REC-SVG-20010904/DTD/svg10.dtd">
<svg version="1.0" xmlns="http://www.w3.org/2000/svg"
 width="795.000000pt" height="450.000000pt" viewBox="0 0 795.000000 450.000000"
 preserveAspectRatio="xMidYMid meet">
<metadata>
Created by potrace 1.16, written by Peter Selinger 2001-2019
</metadata>
<g transform="translate(0.000000,450.000000) scale(0.100000,-0.100000)"
fill="#000000" stroke="none">
<path d="M1613 4268 l6 -233 31 -350 30 -350 0 -106 0 -105 -15 -52 -16 -52
-19 -10 -19 -10 -31 0 -31 0 -58 30 -58 31 -69 20 -69 20 -95 14 -95 15 -142
0 -142 0 -112 -16 -111 -15 -93 -24 -93 -24 -79 -31 -78 -31 -67 -40 -66 -39
-31 -31 -31 -31 -28 -46 -27 -47 0 -71 1 -70 27 -55 26 -55 48 -48 48 -47 70
-35 70 -34 78 -20 79 -20 135 -12 135 -12 169 13 168 12 154 24 154 24 111 25
111 26 33 0 33 0 36 -10 35 -10 41 -35 40 -34 21 -49 21 -49 11 -91 11 -90
-11 -119 -11 -118 -29 -145 -29 -145 -40 -146 -40 -145 -47 -143 -46 -144 -3
-16 -3 -16 117 2 116 2 500 12 500 12 180 -6 180 -5 90 -16 90 -16 65 -33 64
-32 19 -26 19 -27 5 -43 5 -44 -22 -57 -21 -57 -51 -77 -52 -78 -18 -48 -18
-48 0 -43 0 -42 23 -42 22 -42 27 -21 27 -21 53 -24 53 -24 75 -16 75 -16 130
-8 130 -9 101 9 101 9 69 21 69 21 50 25 50 25 33 31 32 31 0 37 0 38 -25 20
-26 20 -30 6 -31 7 -19 42 -19 41 0 33 0 34 16 28 17 27 51 31 51 30 66 20 66
20 124 21 124 21 360 40 360 41 140 20 140 20 105 20 105 20 166 40 166 41 12
102 12 101 9 370 9 370 11 80 11 80 15 59 15 60 24 45 24 46 31 32 31 33 55
16 55 16 67 -12 66 -11 71 -30 70 -30 61 -14 60 -15 85 -6 84 -7 90 12 90 12
78 26 78 26 68 41 68 41 34 30 34 30 36 45 36 45 24 50 24 50 0 105 0 105 -30
58 -29 59 -49 43 -48 44 -54 20 -54 20 -63 7 -63 6 -74 -16 -74 -16 -66 -31
-66 -31 -85 -14 -85 -14 -75 0 -75 0 -70 15 -70 15 -64 31 -64 32 -66 66 -67
66 -36 70 -36 70 -22 65 -22 65 -19 97 -18 96 -10 148 -10 149 9 245 10 245 3
48 4 47 -2400 0 -2400 0 6 -232z"/>
</g>
</svg>
