<?xml version="1.0" standalone="no"?>
<!DOCTYPE svg PUBLIC "-//W3C//DTD SVG 20010904//EN"
 "http://www.w3.org/TR/2001/REC-SVG-20010904/DTD/svg10.dtd">
<svg version="1.0" xmlns="http://www.w3.org/2000/svg"
 width="508.000000pt" height="452.000000pt" viewBox="0 0 508.000000 452.000000"
 preserveAspectRatio="xMidYMid meet">
<metadata>
Created by potrace 1.16, written by Peter Selinger 2001-2019
</metadata>
<g transform="translate(0.000000,452.000000) scale(0.100000,-0.100000)"
fill="#000000" stroke="none">
<path d="M2156 4509 l-110 -9 -87 -15 -88 -15 -48 -16 -48 -16 -17 -16 -18
-15 0 -22 0 -22 23 -21 23 -22 30 -10 30 -11 22 -67 21 -67 11 -72 11 -71 -10
-57 -11 -57 -27 -50 -28 -51 -52 -42 -52 -43 -73 -30 -73 -31 -100 -20 -100
-20 -135 -11 -135 -12 -512 8 -513 7 0 -126 0 -125 -15 -186 -15 -186 -25
-233 -25 -232 -6 -125 -6 -125 13 -40 14 -40 43 -3 44 -3 33 25 33 25 76 26
76 26 103 15 102 16 130 -5 130 -6 83 -16 83 -16 87 -25 86 -25 91 -44 90 -43
55 -44 55 -43 22 -25 22 -25 32 -58 31 -59 5 -58 6 -58 -22 -70 -21 -70 -44
-58 -44 -59 -49 -36 -48 -37 -50 -25 -50 -25 -70 -22 -70 -22 -105 -5 -106 -6
-82 17 -81 16 -93 37 -93 36 -86 5 -87 4 -38 -12 -39 -13 -45 -46 -45 -47 -22
-64 -22 -65 -13 -60 -12 -60 -2 -506 -1 -507 -7 -33 -6 -34 2413 0 2413 0 47
220 47 220 20 107 19 108 17 142 16 143 -5 120 -6 120 -16 55 -17 55 -26 43
-27 43 -53 26 -53 26 -77 -6 -77 -6 -82 -25 -82 -25 -108 -23 -108 -23 -170 0
-170 0 -55 19 -55 18 -45 26 -45 25 -36 38 -37 37 -25 43 -25 44 -18 60 -18
60 0 95 -1 95 27 58 28 59 52 53 53 52 54 27 53 28 67 14 66 14 68 0 68 0 76
-16 76 -15 66 -26 66 -25 80 -25 80 -24 81 3 80 3 40 26 39 26 28 51 28 51 16
73 16 73 0 210 0 210 -13 180 -12 180 -6 227 -7 226 -8 8 -7 8 -393 -32 -392
-33 -200 -10 -200 -11 -135 6 -135 7 -65 9 -65 10 -67 21 -67 21 -41 38 -40
37 0 41 0 41 60 114 60 115 16 63 16 64 -4 60 -5 61 -21 40 -20 40 -47 43 -46
43 -63 29 -62 29 -79 20 -80 19 -97 11 -97 10 -183 -1 -183 -2 -109 -8z"/>
</g>
</svg>
