<?xml version="1.0" standalone="no"?>
<!DOCTYPE svg PUBLIC "-//W3C//DTD SVG 20010904//EN"
 "http://www.w3.org/TR/2001/REC-SVG-20010904/DTD/svg10.dtd">
<svg version="1.0" xmlns="http://www.w3.org/2000/svg"
 width="506.000000pt" height="450.000000pt" viewBox="0 0 506.000000 450.000000"
 preserveAspectRatio="xMidYMid meet">
<metadata>
Created by potrace 1.16, written by Peter Selinger 2001-2019
</metadata>
<g transform="translate(0.000000,450.000000) scale(0.100000,-0.100000)"
fill="#000000" stroke="none">
<path d="M2156 4489 l-110 -9 -87 -15 -88 -15 -48 -16 -48 -16 -17 -16 -18
-15 0 -12 0 -12 23 -21 23 -22 30 -10 30 -11 22 -67 21 -67 11 -70 11 -70 -6
-55 -6 -55 -30 -62 -30 -63 -54 -44 -54 -44 -73 -30 -73 -31 -100 -20 -100
-20 -135 -11 -135 -12 -512 7 -513 7 0 -125 0 -125 -15 -186 -15 -186 -25
-233 -25 -232 -6 -115 -6 -115 13 -40 14 -40 33 -3 33 -3 34 25 33 25 76 26
76 26 103 15 102 16 140 -5 140 -6 83 -16 83 -16 87 -25 86 -25 91 -44 90 -43
55 -44 55 -43 22 -25 22 -25 32 -59 32 -59 5 -68 5 -67 -22 -70 -21 -70 -44
-58 -44 -59 -49 -36 -48 -37 -50 -25 -50 -25 -70 -22 -70 -22 -116 -5 -115 -6
-82 17 -81 16 -93 37 -93 36 -76 5 -76 4 -39 -12 -39 -13 -45 -46 -45 -47 -22
-64 -22 -65 -13 -60 -12 -60 -2 -527 -1 -528 2396 -2 2396 -3 32 145 33 145
34 180 35 180 17 145 16 145 -5 110 -6 110 -16 55 -17 55 -26 43 -27 43 -53
26 -53 26 -67 -6 -67 -7 -82 -24 -82 -25 -108 -23 -108 -23 -180 0 -180 0 -55
19 -55 18 -45 26 -45 25 -36 38 -37 37 -25 43 -25 44 -18 60 -18 60 0 105 -1
105 27 58 28 59 52 53 53 52 54 27 53 28 67 14 66 14 78 0 78 0 76 -16 76 -15
66 -26 66 -25 80 -25 80 -24 71 3 71 3 39 26 39 26 28 51 28 51 16 73 16 73 0
200 0 200 -13 180 -12 180 -6 227 -7 226 -7 7 -7 8 -378 -32 -378 -31 -210
-11 -210 -11 -141 6 -140 6 -65 10 -64 10 -67 21 -67 21 -41 38 -40 37 0 51 0
51 60 114 60 115 16 63 16 64 -5 51 -5 51 -20 40 -20 39 -47 43 -46 43 -63 29
-62 29 -79 20 -80 19 -97 11 -97 10 -173 -1 -173 -2 -109 -8z"/>
</g>
</svg>
