<?xml version="1.0" standalone="no"?>
<!DOCTYPE svg PUBLIC "-//W3C//DTD SVG 20010904//EN"
 "http://www.w3.org/TR/2001/REC-SVG-20010904/DTD/svg10.dtd">
<svg version="1.0" xmlns="http://www.w3.org/2000/svg"
 width="626.000000pt" height="367.000000pt" viewBox="0 0 626.000000 367.000000"
 preserveAspectRatio="xMidYMid meet">
<metadata>
Created by potrace 1.16, written by Peter Selinger 2001-2019
</metadata>
<g transform="translate(0.000000,367.000000) scale(0.100000,-0.100000)"
fill="#000000" stroke="none">
<path d="M1475 3664 l-50 -4 -410 -22 -410 -21 -302 -1 -303 -1 0 -1807 0
-1808 2410 0 2410 0 1 108 2 107 1 420 1 420 13 60 13 60 22 65 22 64 45 47
45 46 39 13 39 12 66 -4 66 -5 93 -36 93 -37 81 -16 82 -17 125 6 126 5 70 22
70 22 50 25 50 25 48 37 49 36 44 59 44 58 21 70 21 70 -4 77 -4 77 -33 59
-32 60 -22 25 -22 25 -55 43 -55 44 -90 43 -91 44 -86 25 -87 25 -83 16 -83
17 -150 5 -150 5 -102 -16 -103 -15 -76 -26 -76 -26 -33 -25 -34 -26 -23 4
-23 3 -13 40 -14 40 6 105 6 106 25 232 25 232 15 186 15 186 0 134 0 134 -9
0 -9 0 -55 -24 -55 -25 -116 -35 -116 -35 -153 -30 -153 -30 -184 -26 -185
-26 -175 -25 -175 -25 -97 -24 -97 -24 -61 -27 -61 -27 -29 -34 -30 -34 0 -49
0 -50 15 -38 15 -38 42 -14 41 -15 20 -26 19 -27 -12 -38 -13 -37 -39 -43 -40
-44 -63 -39 -62 -40 -59 -24 -59 -25 -55 -15 -55 -15 -55 -11 -55 -11 -109
-10 -109 -9 -71 9 -71 10 -70 34 -70 33 -56 46 -57 46 -46 66 -47 65 -29 58
-28 57 -16 56 -16 55 -9 70 -8 69 9 75 9 75 34 73 35 74 45 43 45 44 0 21 0
21 -37 16 -38 16 -200 2 -200 3 -50 -4z"/>
</g>
</svg>
