<?xml version="1.0" standalone="no"?>
<!DOCTYPE svg PUBLIC "-//W3C//DTD SVG 20010904//EN"
 "http://www.w3.org/TR/2001/REC-SVG-20010904/DTD/svg10.dtd">
<svg version="1.0" xmlns="http://www.w3.org/2000/svg"
 width="624.000000pt" height="365.000000pt" viewBox="0 0 624.000000 365.000000"
 preserveAspectRatio="xMidYMid meet">
<metadata>
Created by potrace 1.16, written by Peter Selinger 2001-2019
</metadata>
<g transform="translate(0.000000,365.000000) scale(0.100000,-0.100000)"
fill="#000000" stroke="none">
<path d="M1470 3644 l-55 -4 -395 -21 -395 -21 -308 -6 -307 -7 -4 10 -4 10
-1 -1802 -1 -1803 2400 0 2400 0 1 108 2 107 1 420 1 420 13 60 13 60 22 65
22 64 45 47 45 46 39 13 39 12 76 -4 76 -5 93 -36 93 -37 81 -16 82 -17 115 6
116 5 70 22 70 22 50 25 50 25 48 37 49 36 44 59 44 58 21 70 22 70 -5 67 -5
68 -32 59 -32 59 -22 25 -22 25 -55 43 -55 44 -90 43 -91 44 -86 25 -87 25
-83 16 -83 16 -140 6 -140 5 -102 -16 -103 -15 -76 -26 -76 -26 -33 -25 -34
-25 -33 3 -33 3 -14 40 -13 40 6 115 6 115 25 232 25 233 15 186 15 186 0 123
0 124 -54 -24 -54 -24 -116 -35 -116 -35 -153 -30 -153 -30 -184 -26 -185 -26
-175 -25 -175 -25 -97 -24 -97 -24 -61 -27 -61 -27 -29 -34 -30 -34 0 -39 0
-40 16 -38 15 -39 39 -12 39 -11 20 -27 21 -26 0 -21 0 -21 -19 -40 -19 -40
-38 -36 -39 -37 -56 -35 -55 -35 -60 -25 -59 -25 -55 -15 -55 -15 -53 -11 -54
-11 -117 -10 -117 -10 -75 10 -74 10 -70 34 -70 33 -56 46 -57 46 -46 66 -47
65 -29 58 -28 57 -16 55 -16 55 -9 75 -10 75 10 80 10 80 34 73 35 74 45 43
45 44 0 11 0 11 -37 16 -38 16 -190 2 -190 3 -55 -4z"/>
</g>
</svg>
