<?xml version="1.0" standalone="no"?>
<!DOCTYPE svg PUBLIC "-//W3C//DTD SVG 20010904//EN"
 "http://www.w3.org/TR/2001/REC-SVG-20010904/DTD/svg10.dtd">
<svg version="1.0" xmlns="http://www.w3.org/2000/svg"
 width="643.000000pt" height="471.000000pt" viewBox="0 0 643.000000 471.000000"
 preserveAspectRatio="xMidYMid meet">
<metadata>
Created by potrace 1.16, written by Peter Selinger 2001-2019
</metadata>
<g transform="translate(0.000000,471.000000) scale(0.100000,-0.100000)"
fill="#000000" stroke="none">
<path d="M1625 4668 l4 -43 6 -150 5 -150 20 -225 20 -225 6 -150 7 -150 -12
-73 -11 -74 -20 -37 -19 -38 -37 -18 -36 -17 -57 20 -56 20 -60 22 -60 22 -90
20 -90 19 -160 6 -160 5 -113 -16 -112 -17 -88 -24 -87 -25 -103 -51 -104 -51
-67 -64 -68 -64 -32 -60 -32 -60 -10 -62 -10 -63 12 -45 13 -45 56 -55 56 -56
82 -42 81 -43 94 -33 94 -34 124 -31 124 -30 145 -22 145 -21 170 -1 170 0 65
12 65 12 85 42 85 42 81 0 80 0 42 -28 42 -27 24 -49 25 -48 12 -68 12 -69 -7
-85 -6 -86 -25 -120 -24 -121 -45 -140 -46 -141 -49 -119 -49 -119 -46 -99
-46 -98 0 -21 0 -20 213 7 212 6 185 10 185 9 210 1 210 0 115 -11 115 -10 75
-15 75 -15 63 -30 63 -31 15 -32 16 -32 -56 -109 -55 -110 -21 -75 -20 -75 -6
-70 -6 -70 12 -60 12 -60 26 -48 26 -49 50 -45 50 -45 56 -28 56 -28 69 -21
70 -21 100 -15 100 -15 143 0 143 0 77 16 77 16 60 24 60 25 55 36 55 36 61
63 61 63 37 73 37 73 14 55 15 55 0 100 0 101 -15 59 -15 60 -32 60 -32 60
-29 57 -29 57 6 27 7 28 35 33 35 32 66 21 65 20 121 11 121 11 180 -12 181
-11 160 -20 160 -20 205 -34 205 -34 124 -26 124 -25 18 0 19 0 0 1810 0 1810
-2405 0 -2405 0 5 -42z"/>
</g>
</svg>
