<?xml version="1.0" standalone="no"?>
<!DOCTYPE svg PUBLIC "-//W3C//DTD SVG 20010904//EN"
 "http://www.w3.org/TR/2001/REC-SVG-20010904/DTD/svg10.dtd">
<svg version="1.0" xmlns="http://www.w3.org/2000/svg"
 width="641.000000pt" height="469.000000pt" viewBox="0 0 641.000000 469.000000"
 preserveAspectRatio="xMidYMid meet">
<metadata>
Created by potrace 1.16, written by Peter Selinger 2001-2019
</metadata>
<g transform="translate(0.000000,469.000000) scale(0.100000,-0.100000)"
fill="#000000" stroke="none">
<path d="M1632 4513 l7 -178 21 -235 21 -235 6 -155 6 -155 -12 -73 -11 -74
-20 -37 -19 -38 -36 -18 -37 -17 -36 7 -37 6 -53 24 -52 24 -73 20 -73 21 -99
15 -100 15 -114 0 -113 0 -105 -16 -104 -15 -87 -25 -87 -24 -103 -51 -104
-51 -67 -64 -68 -64 -32 -60 -32 -60 -9 -57 -10 -57 12 -41 12 -40 56 -55 56
-56 82 -42 81 -43 94 -33 94 -34 124 -31 124 -30 145 -21 145 -22 160 0 160
-1 65 12 65 12 85 42 85 42 91 0 90 0 42 -28 42 -27 24 -49 25 -48 12 -69 12
-68 -6 -93 -6 -93 -25 -123 -25 -123 -45 -140 -46 -141 -49 -119 -49 -119 -46
-99 -46 -98 0 -11 0 -10 203 7 202 7 185 9 185 9 220 1 220 0 115 -11 115 -10
75 -15 75 -15 63 -30 62 -30 15 -29 15 -29 0 -15 0 -15 -54 -108 -55 -108 -20
-75 -21 -74 -6 -61 -6 -61 12 -59 12 -60 26 -48 26 -49 50 -45 50 -45 56 -28
56 -28 69 -21 70 -21 100 -15 100 -15 133 0 133 0 77 16 77 16 60 24 60 25 55
36 55 36 61 64 62 63 40 83 40 82 13 56 12 57 -6 103 -5 104 -20 56 -20 56
-46 80 -47 80 -5 35 -6 35 16 31 16 30 31 23 31 22 60 18 61 19 125 11 125 12
186 -12 186 -12 160 -20 160 -20 205 -34 205 -34 124 -26 124 -25 8 0 9 0 0
1800 0 1800 -2392 0 -2393 0 7 -177z"/>
</g>
</svg>
