<?xml version="1.0" standalone="no"?>
<!DOCTYPE svg PUBLIC "-//W3C//DTD SVG 20010904//EN"
 "http://www.w3.org/TR/2001/REC-SVG-20010904/DTD/svg10.dtd">
<svg version="1.0" xmlns="http://www.w3.org/2000/svg"
 width="649.000000pt" height="455.000000pt" viewBox="0 0 649.000000 455.000000"
 preserveAspectRatio="xMidYMid meet">
<metadata>
Created by potrace 1.16, written by Peter Selinger 2001-2019
</metadata>
<g transform="translate(0.000000,455.000000) scale(0.100000,-0.100000)"
fill="#000000" stroke="none">
<path d="M3810 4535 l-85 -13 -59 -23 -60 -22 -23 -23 -23 -23 0 -31 0 -31 15
-23 15 -23 44 -31 44 -32 22 -62 21 -63 6 -66 6 -65 -17 -56 -16 -56 -52 -55
-53 -56 -66 -36 -67 -36 -98 -24 -98 -25 -120 -18 -121 -17 -712 3 -713 2 5
-57 4 -58 6 -136 5 -137 31 -338 31 -339 1 -190 2 -190 -18 -48 -19 -47 -17
-10 -18 -9 -37 20 -37 20 -102 24 -102 24 -120 15 -120 15 -110 6 -110 6 -136
-10 -137 -11 -88 -15 -89 -16 -105 -35 -105 -35 -45 -26 -45 -26 -43 -34 -42
-35 -20 -38 -20 -39 0 -51 0 -51 15 -36 15 -36 55 -52 54 -53 90 -46 90 -47
96 -34 96 -35 117 -29 117 -30 120 -20 120 -20 135 -12 135 -12 110 6 110 6
54 16 53 16 22 23 21 23 39 13 39 12 51 2 51 1 40 -18 40 -18 27 -37 26 -38
17 -59 18 -59 -6 -111 -5 -110 -27 -118 -26 -118 -44 -127 -43 -127 -38 -90
-38 -90 -68 -134 -68 -134 0 -13 0 -14 25 -6 25 -6 647 -2 648 -1 130 18 130
19 110 28 111 27 69 36 70 35 42 36 42 37 28 57 28 57 -1 75 0 75 -17 55 -16
55 -41 55 -42 55 -19 37 -19 37 0 32 0 31 20 28 20 28 52 21 53 20 45 11 45
10 141 7 140 6 98 -12 97 -13 70 -19 71 -20 49 -24 48 -25 37 -32 37 -33 19
-43 19 -43 -7 -32 -6 -32 -15 -29 -15 -28 -38 -42 -37 -41 -16 -30 -15 -30 -7
-46 -7 -45 15 -36 15 -35 33 -26 34 -26 45 -19 46 -19 69 -16 70 -16 124 -16
124 -15 376 -25 376 -25 150 -16 150 -15 70 -10 70 -10 84 -15 83 -16 24 6 24
6 0 83 0 82 21 265 20 265 1 210 0 210 -15 77 -16 78 -19 42 -19 43 -29 34
-28 34 -41 18 -40 19 -72 0 -71 0 -51 -12 -51 -11 -16 -25 -16 -24 -41 -19
-42 -19 -56 0 -56 0 -79 20 -79 20 -94 46 -93 46 -69 68 -69 67 -26 57 -25 56
-6 53 -5 52 16 63 16 62 20 40 21 41 40 40 41 41 52 24 51 23 56 7 57 6 78
-17 79 -17 64 -29 65 -29 57 -15 57 -15 89 0 90 0 49 26 49 25 33 37 34 36 17
36 18 35 17 50 16 50 15 100 15 100 0 200 0 200 -15 230 -15 230 0 95 0 95
-62 13 -63 13 -134 24 -134 25 -186 20 -186 20 -260 20 -260 20 -135 16 -135
15 -88 19 -88 19 -58 26 -58 26 -32 34 -31 33 -6 30 -6 29 22 51 22 52 20 0
19 0 30 15 30 16 10 27 10 26 -16 43 -16 42 -60 55 -60 56 -72 34 -72 34 -66
20 -67 21 -77 10 -76 11 -102 -1 -102 -1 -85 -13z"/>
</g>
</svg>
