<?xml version="1.0" standalone="no"?>
<!DOCTYPE svg PUBLIC "-//W3C//DTD SVG 20010904//EN"
 "http://www.w3.org/TR/2001/REC-SVG-20010904/DTD/svg10.dtd">
<svg version="1.0" xmlns="http://www.w3.org/2000/svg"
 width="647.000000pt" height="453.000000pt" viewBox="0 0 647.000000 453.000000"
 preserveAspectRatio="xMidYMid meet">
<metadata>
Created by potrace 1.16, written by Peter Selinger 2001-2019
</metadata>
<g transform="translate(0.000000,453.000000) scale(0.100000,-0.100000)"
fill="#000000" stroke="none">
<path d="M3810 4515 l-85 -13 -59 -23 -60 -22 -23 -23 -23 -23 0 -21 0 -21 15
-23 15 -23 44 -31 44 -32 22 -62 21 -63 6 -75 6 -76 -17 -56 -16 -56 -52 -55
-53 -56 -66 -36 -67 -36 -98 -24 -98 -25 -120 -18 -121 -17 -712 3 -712 2 4
-32 4 -33 5 -150 5 -150 32 -340 31 -340 2 -205 1 -205 -21 -47 -22 -46 -21
-7 -22 -7 -39 21 -40 20 -77 20 -78 20 -94 15 -94 15 -147 11 -147 11 -140
-10 -140 -11 -89 -15 -89 -16 -105 -35 -105 -35 -45 -26 -45 -26 -43 -34 -42
-35 -20 -38 -20 -39 0 -41 0 -41 15 -36 15 -36 55 -52 54 -53 90 -46 90 -47
96 -34 96 -35 117 -29 117 -30 120 -20 120 -20 130 -12 130 -11 105 5 105 6
54 16 53 16 22 23 21 23 40 13 40 13 60 1 60 1 40 -18 40 -18 27 -37 26 -38
17 -59 18 -59 -5 -120 -5 -121 -27 -118 -27 -118 -44 -127 -43 -127 -38 -90
-38 -90 -68 -134 -68 -135 11 -7 11 -7 427 -7 426 -8 235 6 235 6 115 16 115
16 107 25 107 26 78 38 78 38 42 36 42 37 27 56 28 57 0 65 0 66 -17 55 -16
55 -41 55 -42 55 -20 40 -21 40 0 36 0 37 21 30 22 30 52 21 53 20 45 11 45
10 151 7 151 6 97 -12 97 -13 70 -19 71 -20 49 -25 50 -25 39 -35 39 -35 17
-44 16 -44 -7 -38 -7 -37 -15 -29 -15 -29 -38 -42 -37 -41 -15 -30 -15 -30 -7
-37 -7 -37 15 -34 14 -34 33 -26 34 -26 45 -19 46 -19 69 -16 70 -16 124 -16
124 -15 376 -25 376 -25 150 -16 150 -15 95 -14 95 -14 54 -11 55 -10 18 6 18
5 0 82 0 82 21 265 20 265 1 200 0 200 -15 77 -16 78 -19 42 -19 43 -29 34
-28 34 -41 18 -40 19 -62 0 -61 0 -51 -12 -51 -11 -16 -25 -16 -24 -41 -19
-42 -19 -66 0 -66 0 -79 20 -79 20 -94 46 -93 46 -69 68 -69 67 -26 58 -26 57
-5 62 -5 61 16 63 16 62 20 40 21 41 40 40 41 41 53 24 53 25 65 6 64 6 79
-18 79 -17 64 -29 65 -29 57 -15 57 -15 79 0 80 0 49 26 49 25 33 37 34 36 17
36 18 35 17 50 16 50 15 100 15 100 0 190 0 190 -15 230 -15 230 0 95 0 95
-62 13 -63 13 -134 24 -134 25 -186 20 -186 20 -260 20 -260 20 -135 16 -135
15 -88 19 -88 19 -58 26 -58 26 -32 35 -33 34 -5 38 -5 38 22 52 22 52 22 0
21 0 31 19 31 19 5 20 6 20 -18 39 -17 38 -57 53 -58 52 -71 34 -72 34 -66 20
-67 21 -77 10 -76 11 -92 -1 -92 -1 -85 -13z"/>
</g>
</svg>
