<?xml version="1.0" standalone="no"?>
<!DOCTYPE svg PUBLIC "-//W3C//DTD SVG 20010904//EN"
 "http://www.w3.org/TR/2001/REC-SVG-20010904/DTD/svg10.dtd">
<svg version="1.0" xmlns="http://www.w3.org/2000/svg"
 width="616.000000pt" height="478.000000pt" viewBox="0 0 616.000000 478.000000"
 preserveAspectRatio="xMidYMid meet">
<metadata>
Created by potrace 1.16, written by Peter Selinger 2001-2019
</metadata>
<g transform="translate(0.000000,478.000000) scale(0.100000,-0.100000)"
fill="#000000" stroke="none">
<path d="M1310 4773 l-55 -3 -455 -31 -455 -30 -173 -6 -172 -6 0 -1801 0
-1801 8 -10 7 -10 315 7 315 6 395 23 395 22 230 1 230 1 38 -13 37 -14 0 -13
0 -13 -35 -26 -34 -26 -40 -83 -41 -82 -10 -85 -10 -86 10 -79 10 -80 16 -55
16 -55 28 -57 29 -58 47 -65 46 -66 57 -46 56 -46 70 -33 70 -34 75 -10 75
-11 85 6 85 6 74 10 74 11 75 20 75 19 61 26 60 25 55 35 56 35 39 37 38 36
19 40 19 40 0 31 0 31 -21 26 -20 27 -39 11 -39 12 -15 39 -16 38 0 30 0 29
30 34 29 34 61 27 61 27 97 24 97 24 175 25 175 25 185 26 184 26 152 30 152
29 98 30 99 29 81 32 80 32 50 63 49 63 48 83 47 83 39 100 39 100 36 125 35
125 41 150 41 150 39 81 39 82 51 45 50 45 50 12 49 12 33 -6 33 -7 41 -10 42
-11 10 -23 11 -24 27 -18 27 -17 51 0 51 1 40 21 40 20 35 34 35 33 23 30 23
30 30 62 30 62 21 78 21 78 1 175 0 175 -18 70 -17 70 -24 52 -24 52 -45 49
-46 49 -47 25 -48 26 -65 17 -65 17 -130 0 -130 0 -100 -17 -100 -16 -80 -20
-80 -20 -86 -30 -86 -29 -34 0 -34 0 -33 20 -33 21 -19 42 -19 42 -11 85 -10
85 5 80 5 80 20 295 19 295 4 143 3 143 -25 -6 -26 -7 -549 13 -549 13 -176
-12 -176 -12 -75 -16 -75 -16 -58 -25 -58 -26 -22 -31 -22 -31 0 -50 0 -50 57
-100 57 -100 16 -52 17 -53 -4 -68 -3 -68 -35 -54 -34 -53 -71 -47 -72 -46
-70 -22 -70 -22 -84 -15 -84 -15 -130 -7 -130 -6 -85 17 -85 17 -85 42 -85 41
-85 86 -85 85 -38 65 -38 65 -25 80 -26 80 -5 80 -5 80 11 57 12 57 30 61 31
60 34 26 34 26 0 13 0 13 -22 6 -23 6 -235 -2 -235 -2 -55 -3z"/>
</g>
</svg>
