<?xml version="1.0" standalone="no"?>
<!DOCTYPE svg PUBLIC "-//W3C//DTD SVG 20010904//EN"
 "http://www.w3.org/TR/2001/REC-SVG-20010904/DTD/svg10.dtd">
<svg version="1.0" xmlns="http://www.w3.org/2000/svg"
 width="614.000000pt" height="476.000000pt" viewBox="0 0 614.000000 476.000000"
 preserveAspectRatio="xMidYMid meet">
<metadata>
Created by potrace 1.16, written by Peter Selinger 2001-2019
</metadata>
<g transform="translate(0.000000,476.000000) scale(0.100000,-0.100000)"
fill="#000000" stroke="none">
<path d="M1310 4753 l-55 -3 -455 -31 -455 -30 -173 -6 -172 -6 0 -1788 0
-1787 5 -14 5 -13 308 7 307 6 395 23 395 22 245 1 245 1 38 -17 37 -17 0 -11
0 -11 -45 -44 -45 -43 -35 -74 -34 -73 -10 -80 -10 -80 10 -75 9 -75 16 -55
16 -55 28 -57 29 -58 47 -65 46 -66 57 -46 56 -46 70 -33 70 -34 74 -10 75
-10 117 10 117 10 54 11 53 11 55 15 55 15 59 25 60 25 55 35 56 35 39 37 38
36 19 40 19 40 0 21 0 21 -21 26 -20 27 -39 11 -39 12 -15 39 -16 38 0 40 0
39 30 34 29 34 61 27 61 27 97 24 97 24 175 25 175 25 185 26 184 26 152 30
152 29 98 30 99 29 81 32 80 32 50 63 49 63 48 83 47 83 39 100 39 100 36 125
35 125 41 150 41 150 39 81 39 82 51 45 50 45 50 12 51 12 47 -7 47 -6 36 -11
37 -11 11 -23 10 -23 26 -17 26 -17 43 1 43 0 39 20 39 20 35 34 35 33 23 30
23 30 30 62 30 62 21 78 21 78 0 165 1 165 -18 70 -17 70 -24 52 -24 52 -45
49 -46 49 -47 25 -48 26 -64 17 -64 16 -121 0 -121 0 -100 -16 -100 -16 -80
-20 -80 -20 -86 -30 -86 -29 -44 0 -44 0 -33 20 -33 21 -19 42 -19 42 -11 90
-11 90 6 85 5 85 20 295 19 295 3 132 3 131 -9 -5 -8 -6 -564 14 -563 13 -168
-12 -168 -12 -75 -16 -75 -16 -58 -25 -58 -26 -22 -31 -22 -31 0 -40 0 -40 57
-100 57 -100 16 -52 17 -53 -3 -77 -4 -78 -35 -54 -34 -54 -71 -47 -72 -46
-70 -22 -70 -22 -84 -15 -84 -15 -140 -7 -140 -6 -85 17 -85 17 -85 42 -85 41
-85 86 -85 85 -38 65 -38 65 -25 80 -26 80 -5 90 -5 90 11 57 12 57 30 61 31
60 35 27 35 27 -18 7 -19 8 -230 -2 -230 -1 -55 -3z"/>
</g>
</svg>
