<?xml version="1.0" standalone="no"?>
<!DOCTYPE svg PUBLIC "-//W3C//DTD SVG 20010904//EN"
 "http://www.w3.org/TR/2001/REC-SVG-20010904/DTD/svg10.dtd">
<svg version="1.0" xmlns="http://www.w3.org/2000/svg"
 width="599.000000pt" height="383.000000pt" viewBox="0 0 599.000000 383.000000"
 preserveAspectRatio="xMidYMid meet">
<metadata>
Created by potrace 1.16, written by Peter Selinger 2001-2019
</metadata>
<g transform="translate(0.000000,383.000000) scale(0.100000,-0.100000)"
fill="#000000" stroke="none">
<path d="M4432 3819 l-82 -8 -58 -16 -57 -16 -37 -25 -37 -24 -17 -32 -16 -31
5 -44 5 -44 47 -81 47 -81 20 -56 20 -56 5 -96 6 -97 -13 -53 -12 -54 -40 -82
-40 -83 -62 -63 -61 -64 -55 -36 -55 -36 -60 -25 -60 -24 -77 -16 -77 -16
-123 0 -123 0 -100 15 -100 15 -70 21 -69 21 -56 28 -56 28 -50 45 -50 45 -26
49 -26 48 -12 59 -12 59 7 54 7 54 19 72 20 72 55 108 54 108 0 25 0 25 -15
29 -15 29 -62 30 -63 30 -75 15 -75 15 -115 10 -115 11 -230 0 -230 -1 -185
-9 -185 -9 -207 -7 -208 -7 0 -106 0 -106 15 -230 15 -230 0 -180 0 -180 -15
-100 -15 -100 -16 -50 -17 -50 -18 -35 -17 -36 -34 -36 -33 -37 -49 -25 -49
-26 -70 0 -69 0 -57 15 -57 15 -65 29 -64 29 -79 17 -79 18 -73 -6 -74 -5 -54
-25 -54 -25 -42 -42 -42 -42 -24 -51 -24 -52 -11 -55 -11 -55 4 -66 5 -66 27
-58 26 -58 69 -67 69 -68 93 -46 94 -46 79 -20 79 -20 76 0 76 0 42 19 41 19
16 24 16 25 51 11 51 12 51 0 52 0 40 -19 41 -18 28 -34 29 -34 19 -43 19 -42
16 -78 15 -77 0 -190 -1 -190 -20 -265 -21 -265 0 -82 0 -83 -10 0 -10 0 0
-19 0 -19 288 -8 287 -9 280 2 280 2 160 15 160 16 95 16 95 16 85 25 85 24
71 34 70 34 47 47 47 47 15 50 15 51 0 26 0 26 -15 59 -16 60 -38 40 -39 40
-20 40 -19 40 -6 33 -7 33 10 45 10 45 22 47 22 47 70 71 71 71 65 31 65 32
75 16 75 16 50 -11 50 -11 41 -28 41 -27 37 -32 36 -32 0 -6 0 -5 36 -47 36
-47 35 -70 36 -71 24 -70 24 -70 6 -76 6 -77 -7 -25 -6 -25 -25 -30 -25 -29
-28 -6 -28 -6 -17 -36 -17 -36 0 -58 0 -57 28 -32 28 -31 56 -26 56 -26 69
-14 68 -14 95 -11 95 -12 790 -8 790 -9 23 -6 22 -7 0 1814 0 1814 -192 37
-193 37 -150 25 -150 24 -165 20 -165 20 -153 11 -154 10 -76 -1 -77 -2 -83
-8z"/>
</g>
</svg>
