<?xml version="1.0" standalone="no"?>
<!DOCTYPE svg PUBLIC "-//W3C//DTD SVG 20010904//EN"
 "http://www.w3.org/TR/2001/REC-SVG-20010904/DTD/svg10.dtd">
<svg version="1.0" xmlns="http://www.w3.org/2000/svg"
 width="597.000000pt" height="381.000000pt" viewBox="0 0 597.000000 381.000000"
 preserveAspectRatio="xMidYMid meet">
<metadata>
Created by potrace 1.16, written by Peter Selinger 2001-2019
</metadata>
<g transform="translate(0.000000,381.000000) scale(0.100000,-0.100000)"
fill="#000000" stroke="none">
<path d="M4432 3799 l-82 -8 -58 -16 -57 -16 -37 -25 -37 -24 -17 -32 -16 -31
6 -35 5 -35 47 -80 46 -80 20 -56 20 -56 5 -104 6 -103 -12 -57 -13 -56 -40
-82 -40 -83 -62 -63 -61 -64 -55 -36 -55 -36 -60 -25 -60 -24 -77 -16 -77 -16
-133 0 -133 0 -100 15 -100 15 -70 21 -69 21 -56 28 -56 28 -50 45 -50 45 -26
49 -26 48 -12 60 -12 59 6 61 6 61 21 74 20 75 55 108 54 108 0 15 0 15 -15
29 -15 29 -62 30 -63 30 -75 15 -75 15 -115 10 -115 11 -220 0 -220 -1 -185
-9 -185 -9 -207 -7 -208 -7 0 -96 0 -96 15 -230 15 -230 0 -190 0 -190 -15
-100 -15 -100 -16 -50 -17 -50 -18 -35 -17 -36 -34 -36 -33 -37 -49 -25 -49
-26 -80 0 -79 0 -57 15 -57 15 -65 29 -64 29 -79 17 -79 18 -64 -6 -65 -6 -53
-25 -53 -24 -41 -41 -40 -40 -21 -41 -20 -40 -16 -62 -16 -63 5 -61 5 -62 26
-57 26 -58 69 -67 69 -68 93 -46 94 -46 79 -20 79 -20 66 0 66 0 42 19 41 19
16 24 16 25 51 11 51 12 61 0 62 0 40 -19 41 -18 28 -34 29 -34 19 -43 19 -42
16 -78 15 -77 0 -200 -1 -200 -20 -265 -21 -265 0 -82 0 -81 -12 -5 -13 -4 5
-5 5 -5 405 -12 405 -11 215 10 215 9 95 11 95 10 95 16 95 16 85 25 85 24 71
34 70 34 47 47 47 47 15 50 15 51 0 16 0 16 -15 59 -16 60 -38 40 -39 40 -20
40 -20 40 -6 40 -7 41 11 47 10 48 22 47 22 47 70 71 71 71 66 32 65 32 82 16
82 16 53 -12 52 -11 41 -28 41 -27 37 -32 36 -32 0 -6 0 -5 36 -47 36 -47 35
-70 36 -71 24 -70 25 -70 5 -87 6 -86 -7 -25 -6 -25 -25 -30 -25 -29 -28 -6
-28 -6 -17 -36 -17 -36 0 -48 0 -47 28 -32 28 -31 56 -26 56 -26 69 -14 68
-14 95 -11 95 -12 791 -7 791 -8 11 -7 12 -7 0 1803 0 1804 -192 37 -193 37
-150 25 -150 24 -165 20 -165 20 -153 11 -154 10 -66 -1 -67 -2 -83 -8z"/>
</g>
</svg>
