<?xml version="1.0" standalone="no"?>
<!DOCTYPE svg PUBLIC "-//W3C//DTD SVG 20010904//EN"
 "http://www.w3.org/TR/2001/REC-SVG-20010904/DTD/svg10.dtd">
<svg version="1.0" xmlns="http://www.w3.org/2000/svg"
 width="523.000000pt" height="373.000000pt" viewBox="0 0 523.000000 373.000000"
 preserveAspectRatio="xMidYMid meet">
<metadata>
Created by potrace 1.16, written by Peter Selinger 2001-2019
</metadata>
<g transform="translate(0.000000,373.000000) scale(0.100000,-0.100000)"
fill="#000000" stroke="none">
<path d="M775 3720 l-190 -7 -252 -2 -252 -1 -15 -16 -16 -15 0 -127 0 -127
-19 -270 -19 -270 -7 -110 -6 -110 11 -90 11 -90 19 -42 19 -42 33 -21 33 -20
54 0 54 0 86 29 86 30 80 20 80 20 98 16 98 16 114 0 114 0 63 -16 63 -17 48
-26 47 -25 46 -49 45 -49 24 -52 24 -52 17 -70 18 -70 -1 -155 0 -155 -21 -78
-21 -78 -30 -62 -30 -62 -23 -30 -23 -30 -35 -33 -35 -34 -37 -19 -37 -19 -39
0 -39 0 -26 20 -26 21 -6 18 -5 18 -38 11 -37 11 -56 7 -57 7 -51 -13 -51 -12
-48 -43 -49 -44 -30 -58 -31 -58 -21 -62 -21 -61 -61 -224 -61 -223 -39 -105
-39 -104 -52 -93 -51 -93 -48 -60 -49 -60 0 -14 0 -14 496 -7 495 -7 151 11
151 11 101 21 101 20 73 31 73 30 54 44 53 44 30 60 30 60 7 64 7 63 -11 74
-12 74 -21 67 -22 68 -31 10 -32 11 -22 23 -21 23 17 15 18 16 48 16 48 16 87
15 87 15 135 10 135 10 138 0 138 0 97 -10 97 -11 80 -19 79 -20 62 -29 63
-29 46 -43 47 -43 19 -38 19 -38 6 -43 6 -43 -16 -63 -16 -63 -60 -115 -60
-114 0 -61 0 -61 40 -37 41 -38 67 -21 67 -21 65 -10 65 -10 150 -6 150 -6
205 11 205 10 398 33 397 32 0 15 0 14 74 151 75 151 39 100 39 100 32 95 31
95 26 110 25 110 6 135 6 136 -18 59 -17 59 -26 38 -27 37 -40 18 -40 18 -70
-1 -70 0 -40 -14 -40 -13 -21 -23 -22 -23 -53 -15 -53 -16 -96 -6 -95 -6 -130
11 -130 12 -120 20 -120 20 -117 30 -117 29 -96 35 -96 34 -90 47 -90 46 -54
53 -55 52 -15 36 -15 36 0 31 0 31 20 39 20 38 42 35 43 34 45 26 45 26 105
35 105 35 89 16 89 15 136 10 137 11 139 -11 140 -10 95 -16 95 -15 78 -20 79
-20 36 -19 37 -20 18 0 18 0 19 10 18 10 19 47 18 48 -1 210 -2 210 -32 340
-31 340 -6 172 -6 172 -7 11 -7 12 -139 -35 -139 -36 -130 -25 -130 -25 -140
-20 -140 -20 -360 -41 -360 -40 -124 -21 -124 -21 -66 -20 -66 -20 -51 -30
-51 -31 -17 -27 -16 -28 0 -44 0 -43 19 -41 19 -42 31 -7 30 -6 26 -20 25 -20
0 -28 0 -27 -32 -31 -33 -31 -45 -22 -44 -22 -54 -19 -53 -18 -62 -12 -62 -11
-143 1 -143 0 -97 17 -97 16 -51 19 -51 19 -45 30 -44 29 -22 44 -22 44 0 31
0 32 18 48 18 48 52 78 51 77 21 57 22 57 -4 53 -5 53 -19 27 -20 27 -64 32
-65 33 -85 16 -85 16 -360 3 -360 2 -190 -7z"/>
</g>
</svg>
