<?xml version="1.0" standalone="no"?>
<!DOCTYPE svg PUBLIC "-//W3C//DTD SVG 20010904//EN"
 "http://www.w3.org/TR/2001/REC-SVG-20010904/DTD/svg10.dtd">
<svg version="1.0" xmlns="http://www.w3.org/2000/svg"
 width="521.000000pt" height="371.000000pt" viewBox="0 0 521.000000 371.000000"
 preserveAspectRatio="xMidYMid meet">
<metadata>
Created by potrace 1.16, written by Peter Selinger 2001-2019
</metadata>
<g transform="translate(0.000000,371.000000) scale(0.100000,-0.100000)"
fill="#000000" stroke="none">
<path d="M775 3700 l-190 -7 -252 -2 -252 -1 -15 -16 -16 -15 0 -127 0 -127
-15 -205 -15 -205 -10 -168 -11 -167 11 -88 11 -87 19 -42 19 -42 33 -21 33
-20 44 0 44 0 86 29 86 30 80 20 80 20 100 16 100 16 121 0 121 0 64 -16 64
-17 48 -26 47 -25 46 -49 45 -49 24 -52 24 -52 17 -70 18 -70 -1 -165 0 -165
-21 -78 -21 -78 -30 -62 -30 -62 -23 -30 -23 -30 -35 -33 -35 -34 -39 -20 -39
-20 -43 0 -43 -1 -26 17 -26 17 -10 23 -11 23 -37 11 -36 11 -47 6 -47 7 -51
-12 -50 -12 -48 -43 -49 -44 -30 -58 -31 -58 -21 -62 -21 -61 -61 -224 -61
-223 -39 -105 -39 -104 -52 -93 -51 -93 -48 -60 -49 -60 0 -4 0 -4 493 -7 492
-7 145 11 145 12 100 20 100 20 73 31 73 30 54 44 54 44 30 63 30 62 6 55 6
55 -11 70 -11 70 -21 67 -22 68 -31 10 -32 11 -24 25 -23 25 10 17 11 17 28
14 28 14 51 13 51 14 115 15 115 16 215 6 215 6 120 -12 119 -13 76 -19 75
-19 62 -29 62 -29 46 -43 47 -43 20 -39 20 -40 5 -51 5 -51 -16 -64 -16 -63
-60 -115 -60 -114 0 -51 0 -51 40 -37 41 -38 67 -21 67 -21 64 -10 65 -10 140
-6 141 -6 205 11 205 10 397 33 396 32 -4 7 -4 7 68 133 68 134 38 90 38 90
43 127 44 127 27 118 27 118 5 121 5 120 -18 59 -17 59 -26 38 -27 37 -40 18
-40 18 -60 -1 -60 -1 -40 -13 -40 -13 -21 -23 -22 -23 -53 -16 -54 -16 -105
-6 -105 -5 -130 11 -130 12 -120 20 -120 20 -117 30 -117 29 -96 35 -96 34
-90 47 -90 46 -54 53 -55 52 -15 36 -15 36 0 41 0 41 20 39 20 38 42 35 43 34
45 26 45 26 105 35 105 35 89 16 89 15 140 11 140 10 147 -11 147 -11 94 -15
94 -15 78 -20 77 -20 40 -20 39 -21 22 7 21 7 22 46 21 47 -1 205 -2 205 -31
340 -32 340 -6 172 -6 172 -6 9 -6 10 -110 -29 -110 -29 -150 -29 -150 -30
-140 -20 -140 -20 -360 -41 -360 -40 -124 -21 -124 -21 -66 -20 -66 -20 -51
-30 -51 -31 -17 -27 -16 -28 0 -34 0 -33 19 -41 19 -42 31 -7 30 -6 26 -20 25
-20 0 -38 0 -37 -32 -31 -33 -31 -50 -25 -50 -25 -69 -21 -69 -21 -101 -9
-101 -9 -130 9 -130 8 -75 16 -75 16 -53 24 -53 24 -27 21 -27 21 -22 42 -23
42 0 42 0 43 18 48 18 48 52 78 51 77 21 57 22 57 -5 44 -5 43 -19 27 -19 26
-64 32 -65 33 -85 16 -85 16 -350 3 -350 2 -190 -7z"/>
</g>
</svg>
