<?xml version="1.0" standalone="no"?>
<!DOCTYPE svg PUBLIC "-//W3C//DTD SVG 20010904//EN"
 "http://www.w3.org/TR/2001/REC-SVG-20010904/DTD/svg10.dtd">
<svg version="1.0" xmlns="http://www.w3.org/2000/svg"
 width="485.000000pt" height="479.000000pt" viewBox="0 0 485.000000 479.000000"
 preserveAspectRatio="xMidYMid meet">
<metadata>
Created by potrace 1.16, written by Peter Selinger 2001-2019
</metadata>
<g transform="translate(0.000000,479.000000) scale(0.100000,-0.100000)"
fill="#000000" stroke="none">
<path d="M2320 4775 l-65 -15 -65 -32 -65 -31 -71 -71 -70 -71 -22 -48 -22
-47 -11 -51 -11 -51 7 -46 7 -47 20 -40 20 -40 39 -40 38 -40 16 -63 16 -62
-15 -54 -16 -53 -47 -47 -47 -47 -70 -34 -71 -34 -85 -24 -85 -25 -95 -16 -95
-16 -155 -15 -155 -14 -235 -3 -235 -3 -326 8 -326 9 -7 -179 -6 -178 -6 -260
-7 -260 13 -120 12 -119 19 -76 19 -75 35 -72 34 -73 47 -50 47 -50 61 -30 61
-30 60 -11 60 -11 100 6 100 6 55 13 55 14 32 29 31 30 40 12 39 12 54 0 54 0
80 -28 80 -28 61 -40 62 -39 40 -55 41 -54 12 -45 13 -44 -11 -62 -11 -63 -27
-60 -27 -61 -57 -54 -57 -55 -52 -26 -52 -26 -62 -15 -63 -15 -80 0 -80 0 -68
15 -69 14 -117 41 -117 40 -77 0 -78 0 -37 -16 -37 -15 -28 -27 -29 -27 -23
-45 -23 -46 -16 -54 -16 -55 -10 -70 -11 -70 -14 -415 -14 -415 -12 -97 -11
-98 6 -15 5 -15 2406 0 2405 0 0 1804 0 1805 -12 7 -11 7 -791 8 -791 7 -95
12 -95 11 -68 14 -69 14 -56 26 -56 26 -28 31 -28 32 0 37 0 38 17 36 17 36
28 6 28 6 25 29 25 30 6 25 7 25 -6 96 -5 97 -25 70 -24 70 -36 71 -35 70 -36
47 -36 47 -1 8 0 7 -52 43 -51 42 -44 21 -43 21 -62 4 -62 4 -65 -15z"/>
</g>
</svg>
