<?xml version="1.0" standalone="no"?>
<!DOCTYPE svg PUBLIC "-//W3C//DTD SVG 20010904//EN"
 "http://www.w3.org/TR/2001/REC-SVG-20010904/DTD/svg10.dtd">
<svg version="1.0" xmlns="http://www.w3.org/2000/svg"
 width="483.000000pt" height="477.000000pt" viewBox="0 0 483.000000 477.000000"
 preserveAspectRatio="xMidYMid meet">
<metadata>
Created by potrace 1.16, written by Peter Selinger 2001-2019
</metadata>
<g transform="translate(0.000000,477.000000) scale(0.100000,-0.100000)"
fill="#000000" stroke="none">
<path d="M2320 4755 l-65 -15 -65 -32 -65 -31 -71 -71 -70 -71 -22 -47 -22
-47 -10 -48 -11 -47 7 -41 6 -40 20 -40 20 -40 39 -40 38 -40 16 -60 15 -59 0
-16 0 -16 -15 -51 -15 -50 -47 -47 -47 -47 -70 -34 -71 -34 -85 -24 -85 -25
-95 -16 -95 -16 -155 -15 -155 -14 -245 -3 -245 -3 -316 8 -316 9 -7 -179 -6
-178 -6 -250 -7 -250 13 -120 12 -119 19 -76 19 -75 35 -72 34 -73 47 -50 47
-50 61 -30 61 -30 60 -11 60 -11 90 6 90 6 55 13 55 14 32 29 31 30 40 12 39
12 64 0 64 0 80 -28 80 -28 61 -40 62 -39 38 -53 39 -53 12 -32 11 -32 1 -45
1 -46 -15 -57 -15 -57 -24 -48 -24 -47 -54 -52 -55 -51 -51 -26 -52 -26 -62
-15 -63 -15 -90 0 -90 0 -68 15 -69 14 -117 41 -117 40 -67 0 -68 0 -37 -16
-37 -15 -28 -27 -29 -27 -23 -45 -23 -46 -16 -54 -16 -55 -10 -70 -11 -70 -14
-415 -14 -415 -11 -92 -11 -93 6 -10 6 -10 2395 0 2394 0 0 1794 0 1795 -12 7
-11 7 -791 8 -791 7 -95 12 -95 11 -68 14 -69 14 -56 26 -56 26 -28 31 -28 32
0 47 0 48 17 36 17 36 28 6 28 6 25 29 25 30 6 25 7 25 -6 86 -5 87 -25 70
-24 70 -36 71 -35 70 -36 47 -36 47 -1 8 0 7 -52 43 -51 42 -43 21 -42 20 -53
4 -53 5 -65 -15z"/>
</g>
</svg>
