<?xml version="1.0" standalone="no"?>
<!DOCTYPE svg PUBLIC "-//W3C//DTD SVG 20010904//EN"
 "http://www.w3.org/TR/2001/REC-SVG-20010904/DTD/svg10.dtd">
<svg version="1.0" xmlns="http://www.w3.org/2000/svg"
 width="748.000000pt" height="458.000000pt" viewBox="0 0 748.000000 458.000000"
 preserveAspectRatio="xMidYMid meet">
<metadata>
Created by potrace 1.16, written by Peter Selinger 2001-2019
</metadata>
<g transform="translate(0.000000,458.000000) scale(0.100000,-0.100000)"
fill="#000000" stroke="none">
<path d="M3495 4573 l-30 -3 -59 -11 -59 -11 -51 -22 -52 -23 -19 -29 -19 -29
0 -45 1 -45 20 -40 21 -40 42 -55 41 -55 16 -55 16 -55 0 -56 0 -57 -27 -56
-27 -55 -42 -37 -42 -36 -78 -38 -78 -38 -107 -26 -107 -25 -115 -17 -115 -16
-355 -4 -355 -5 -310 9 -310 8 -11 -3 -10 -4 3 -142 4 -142 16 -290 16 -290 0
-180 0 -180 -16 -73 -16 -73 -28 -51 -28 -51 -39 -26 -38 -25 -62 -4 -61 -3
-80 24 -80 25 -66 25 -66 26 -76 15 -76 16 -88 0 -88 0 -66 -14 -67 -14 -53
-28 -54 -27 -53 -52 -52 -53 -28 -59 -27 -58 0 -115 1 -115 18 -60 18 -60 25
-44 25 -43 37 -37 36 -38 45 -25 45 -26 55 -18 55 -19 190 0 190 0 108 23 108
23 82 25 82 24 57 6 57 7 53 -26 53 -26 27 -43 26 -43 16 -55 17 -55 6 -90 6
-91 -12 -119 -13 -120 -24 -145 -25 -145 -44 -203 -45 -203 0 -20 0 -19 2409
0 2408 0 7 48 6 47 9 125 10 125 6 270 6 270 11 120 10 120 18 72 19 71 24 49
25 48 29 27 28 27 37 15 37 16 58 0 57 0 117 -40 117 -41 69 -14 68 -15 100 0
100 0 63 15 62 15 52 26 51 26 55 51 54 52 24 47 24 48 15 57 15 57 -1 56 -1
55 -11 32 -12 32 -39 53 -38 53 -62 39 -61 40 -80 28 -80 28 -74 0 -74 0 -39
-12 -40 -12 -31 -30 -32 -29 -55 -14 -55 -13 -80 -6 -80 -6 -60 11 -60 11 -61
30 -61 30 -47 50 -47 50 -34 73 -35 72 -19 75 -19 76 -12 119 -13 120 7 235 6
235 6 196 7 196 -94 17 -94 16 -65 10 -65 9 -150 15 -150 16 -376 25 -376 25
-124 15 -124 16 -70 16 -69 16 -46 19 -45 19 -34 26 -33 26 -13 31 -14 32 8
35 8 34 13 25 13 25 38 41 37 42 16 31 16 31 7 45 6 45 -17 44 -17 45 -39 35
-39 35 -48 25 -48 24 -55 16 -55 17 -95 14 -95 15 -140 -2 -140 -1 -30 -4z"/>
</g>
</svg>
