<?xml version="1.0" standalone="no"?>
<!DOCTYPE svg PUBLIC "-//W3C//DTD SVG 20010904//EN"
 "http://www.w3.org/TR/2001/REC-SVG-20010904/DTD/svg10.dtd">
<svg version="1.0" xmlns="http://www.w3.org/2000/svg"
 width="746.000000pt" height="456.000000pt" viewBox="0 0 746.000000 456.000000"
 preserveAspectRatio="xMidYMid meet">
<metadata>
Created by potrace 1.16, written by Peter Selinger 2001-2019
</metadata>
<g transform="translate(0.000000,456.000000) scale(0.100000,-0.100000)"
fill="#000000" stroke="none">
<path d="M3495 4553 l-30 -3 -59 -11 -59 -11 -51 -22 -52 -23 -18 -28 -19 -28
0 -36 0 -36 21 -40 20 -40 42 -55 41 -55 16 -55 17 -55 0 -66 0 -65 -28 -57
-27 -56 -42 -37 -42 -36 -78 -38 -78 -38 -107 -26 -107 -25 -115 -17 -115 -16
-365 -4 -365 -5 -303 8 -302 8 -8 -2 -7 -3 3 -127 2 -128 17 -300 16 -300 0
-185 0 -185 -16 -73 -16 -73 -28 -51 -28 -51 -39 -26 -39 -26 -71 -3 -71 -3
-80 24 -80 25 -66 25 -66 26 -76 15 -76 16 -78 0 -78 0 -66 -14 -67 -14 -53
-28 -54 -27 -53 -52 -52 -53 -28 -59 -27 -58 1 -105 0 -105 18 -60 18 -60 25
-44 25 -43 37 -37 36 -38 45 -25 45 -26 55 -18 55 -19 180 0 180 0 108 23 108
23 82 25 82 24 67 7 67 6 53 -26 53 -26 27 -43 26 -43 17 -55 16 -55 6 -100 6
-100 -12 -120 -13 -120 -24 -145 -25 -145 -44 -203 -45 -203 0 -10 0 -9 2399
0 2398 0 7 48 6 47 9 125 10 125 6 270 6 270 11 120 10 120 18 72 19 71 24 49
25 48 29 27 28 27 37 15 37 16 68 0 67 0 117 -40 117 -41 69 -14 68 -15 90 0
90 0 63 15 62 15 52 26 51 26 55 51 54 52 24 47 24 48 15 57 15 57 -1 46 -1
45 -11 32 -12 32 -39 53 -38 53 -62 39 -61 40 -80 28 -80 28 -64 0 -64 0 -39
-12 -40 -12 -31 -30 -32 -29 -55 -14 -55 -13 -90 -6 -90 -6 -60 11 -60 11 -61
30 -61 30 -47 50 -47 50 -34 73 -35 72 -19 75 -19 76 -12 119 -13 120 7 250 6
250 6 181 7 181 -94 17 -94 16 -65 10 -65 9 -150 15 -150 16 -376 25 -376 25
-124 15 -124 16 -70 16 -69 16 -46 19 -45 19 -34 26 -33 26 -14 34 -15 34 7
37 7 37 15 30 15 30 37 41 38 42 15 29 15 29 7 37 7 38 -16 44 -17 44 -39 35
-39 35 -48 25 -48 24 -55 16 -55 17 -95 14 -95 15 -130 -2 -130 -1 -30 -4z"/>
</g>
</svg>
