<svg baseProfile="full" height="1080" preserveAspectRatio="none" shape-rendering="geometricPrecision" version="1.1" viewBox="0,0,1920,1080" width="1920" xmlns="http://www.w3.org/2000/svg" xmlns:ev="http://www.w3.org/2001/xml-events" xmlns:xlink="http://www.w3.org/1999/xlink"><title>Jigsaw puzzle piece clips</title><desc>Created with the piecemaker. Piece count: 12</desc><defs/><g><g><rect fill="white" height="1080" width="1920" x="0" y="0"/></g></g><g><g><path d="M 0 0  L 480.000000 0  c -0.0,96.80003055735675 24.0,169.9636274346268 -13.326577822258518,144.7636274346268
c -52.32469595214604,-21.599999999999998 -147.14080934471644,0 -147.14080934471644,35.23637256537319
c 0,33.69575613051384 41.10117487811271,55.29575613051384 146.94640916364656,33.69575613051384
c 62.400000000000006,-21.599999999999998 38.4,75.6 13.520978003328395,146.30424386948616 c 0.0,87.5942157128616 -24.0,153.51266445125214 31.37222912771293,128.31266445125215
c 78.48740805382114,-21.599999999999998 101.95497251908134,0 101.95497251908134,51.68733554874785
c 0,51.7127150331747 -37.018061315215796,73.3127150331747 -45.364115303700416,51.7127150331747
c -62.400000000000006,-21.599999999999998 -38.4,75.6 -87.96308634309385,128.2872849668253 c 0.0,86.14970366224081 -24.0,161.0889604104022 5.030253518000017,135.88896041040218
c 48.20217148940936,-21.599999999999998 139.73997738232399,0 139.73997738232399,44.11103958959782
c 0,40.25000172572095 -55.01073833229547,61.850001725720944 -100.13828224236397,40.25000172572095
c -62.400000000000006,-21.599999999999998 -38.4,75.6 -44.63194865796004,139.74999827427905 L 0 1080 " fill="none" stroke="black" stroke-width="0.1" style="vector-effect:non-scaling-stroke;"/></g><g><path d="M 0 0  L 960.000000 0  c 0.0,41.079572135147686 -24.0,179.80156968655615 88.20758754415226,154.60156968655613
c 37.563101757769836,-21.599999999999998 66.60020852733476,0 66.60020852733476,25.398430313443868
c 0,42.852933164304176 -64.33701705707026,64.45293316430417 -105.68349125214024,42.852933164304176
c -62.400000000000006,-21.599999999999998 -38.4,75.6 -49.124304819346776,137.14706683569582 c -0.0,70.00945777536407 24.0,178.9265035660655 -8.5695396029754,153.72650356606547
c -77.40400371942528,-21.599999999999998 -152.1463687423316,0 -152.1463687423316,26.273496433934525
c 0,40.81015033890702 153.38613064274898,62.410150338907016 159.15849099676268,40.81015033890702
c 62.400000000000006,-21.599999999999998 38.4,75.6 1.5574173485443055,139.18984966109298 c -0.0,96.46948325355802 24.0,175.3777272545263 -42.74804251977758,150.17772725452627
c -48.039193218558225,-21.599999999999998 -84.56533207586548,0 -84.56533207586548,29.822272745473725
c 0,41.42389886077433 28.892292005412198,63.023898860774324 102.96887320375758,41.42389886077433
c 62.400000000000006,-21.599999999999998 38.4,75.6 24.344501391885487,138.57610113922567 L 0 1080 " fill="none" stroke="black" stroke-width="0.1" style="vector-effect:non-scaling-stroke;"/></g><g><path d="M 0 0  L 1440.000000 0  c -0.0,72.42707042624247 24.0,158.93993963201973 -20.796099415799322,133.7399396320197
c -56.68785166418786,-21.599999999999998 -141.4057067090984,0 -141.4057067090984,46.26006036798029
c 0,37.56972458634081 138.62459294585702,59.169724586340806 158.9737286945108,37.56972458634081
c 62.400000000000006,-21.599999999999998 38.4,75.6 3.228077430386918,142.4302754136592 c -0.0,61.848142627647476 24.0,174.47247743420598 -49.59057425757719,149.272477434206
c -42.233739195432406,-21.599999999999998 -68.03603609267168,0 -68.03603609267168,30.727522565794004
c 0,38.166426406149895 70.77018208851621,59.76642640614989 79.8702545504859,38.166426406149895
c 62.400000000000006,-21.599999999999998 38.4,75.6 37.75635579976297,141.8335735938501 c 0.0,63.94630911205026 -24.0,179.08287112335563 72.37953747285373,153.8828711233556
c 14.511706381960192,-21.599999999999998 66.16957193596299,0 66.16957193596299,26.117128876644387
c 0,37.308821838518014 -38.3292101309097,58.90882183851801 -88.65121752194993,37.308821838518014
c -62.400000000000006,-21.599999999999998 -38.4,75.6 -49.89789188686679,142.691178161482 L 0 1080 " fill="none" stroke="black" stroke-width="0.1" style="vector-effect:non-scaling-stroke;"/></g></g><g><g><path d="M 0 0  L 0 360.000000  c 41.39720587214643,0.0 216.244333819853,-18.0 182.64433381985302,-3.081457259004356
c -28.799999999999997,29.778596656665968 0,100.5041827248578 57.35566618014698,100.5041827248578
c 64.80115127454758,0 93.60115127454758,-24.384679478479953 64.80115127454758,-66.2731167059538
c -28.799999999999997,-46.800000000000004 100.8,-28.8 175.19884872545242,-31.14960875989965 c 125.50082831395332,0.0 223.53939743377734,-18.0 189.93939743377734,38.630827264184965
c -28.799999999999997,35.993368583934846 0,50.41575041478952 50.060602566222656,50.41575041478952
c 38.24039483502503,0 67.04039483502503,-21.773171344488365 38.24039483502503,-29.178115967249852
c -28.799999999999997,-46.800000000000004 100.8,-28.8 201.75960516497497,-59.868461711724635 c 109.03279508784021,-0.0 239.70702609937254,18.0 206.10702609937255,-64.02645620529276
c -28.799999999999997,-16.604615201078985 0,-27.533853202953253 33.89297390062745,-27.533853202953253
c 53.80040840367951,0 82.60040840367951,38.41706428198925 53.80040840367951,40.318307284415255
c -28.799999999999997,46.800000000000004 100.8,28.8 186.1995915963205,51.24200212383076 c 44.95120283227619,0.0 206.49778704651365,-18.0 172.89778704651366,25.955690191986147
c -28.799999999999997,55.24652927577211 0,82.80967984762003 67.10221295348634,82.80967984762003
c 59.596513982344334,0 88.39651398234433,-56.499372198761 59.596513982344334,-97.15774479790535
c -28.799999999999997,-46.800000000000004 100.8,-28.8 180.40348601765567,-11.60762524170083 L 1920 0 " fill="none" stroke="black" stroke-width="0.1" style="vector-effect:non-scaling-stroke;"/></g><g><path d="M 0 0  L 0 720.000000  c 110.87465162278667,0.0 226.0820104791654,-18.0 192.4820104791654,6.070862671192038
c -28.799999999999997,33.57096115555382 0,101.01935251197237 47.51798952083459,101.01935251197237
c 68.167560296467,0 96.967560296467,-41.01379506463459 68.167560296467,-44.55766302995291
c -28.799999999999997,-46.800000000000004 100.8,-28.8 171.832439703533,-62.53255215321149 c 94.13687101749709,-0.0 207.72608207753115,18.0 174.12608207753115,-69.18567258315656
c -28.799999999999997,-11.014187801341032 0,-21.39625304625045 65.87391792246885,-21.39625304625045
c 62.30759256647514,0 91.10759256647513,22.794364180834314 62.30759256647514,67.58097677243929
c -28.799999999999997,46.800000000000004 100.8,28.8 177.69240743352486,23.000948856967725 c 74.09106774051567,-0.0 237.20166892444183,18.0 203.60166892444184,-58.82701758462344
c -28.799999999999997,-31.606748208154634 0,-38.850613096658655 36.39833107555816,-38.850613096658655
c 50.02947846939361,0 78.8294784693936,22.47643015203182 50.02947846939361,49.49280750684051
c -28.799999999999997,46.800000000000004 100.8,28.8 189.9705215306064,48.18482317444159 c 30.87376375573215,-0.0 233.97689723302008,18.0 200.3768972330201,-51.4300880271245
c -28.799999999999997,-22.19220373117117 0,-65.87293802103365 39.62310276697991,-65.87293802103365
c 34.27976083236348,0 63.079760832363476,82.18487915858132 34.27976083236348,82.26760349770214
c -28.799999999999997,46.800000000000004 100.8,28.8 205.72023916763652,35.035422550456005 L 1920 0 " fill="none" stroke="black" stroke-width="0.1" style="vector-effect:non-scaling-stroke;"/></g></g></svg>